G04 (created by PCBNEW (2013-may-18)-stable) date Sun 29 Dec 2013 06:13:06 PM EET*
%MOIN*%
G04 Gerber Fmt 3.4, Leading zero omitted, Abs format*
%FSLAX34Y34*%
G01*
G70*
G90*
G04 APERTURE LIST*
%ADD10C,0.00590551*%
%ADD11C,0.0866142*%
%ADD12C,0.15*%
%ADD13R,0.0866142X0.0866142*%
%ADD14C,0.11811*%
%ADD15C,0.07*%
%ADD16R,0.07X0.07*%
%ADD17C,0.0984252*%
%ADD18C,0.065*%
%ADD19C,0.066*%
%ADD20C,0.1*%
%ADD21R,0.1X0.1*%
%ADD22C,0.0393701*%
%ADD23C,0.0787402*%
G04 APERTURE END LIST*
G54D10*
G54D11*
X37976Y-10653D03*
X36976Y-10653D03*
G54D12*
X42026Y-5653D03*
X32026Y-5653D03*
G54D13*
X34826Y-6653D03*
G54D11*
X35926Y-6653D03*
X36976Y-6653D03*
X38076Y-6653D03*
X39176Y-6653D03*
X35376Y-5653D03*
X36476Y-5653D03*
X37526Y-5653D03*
X38626Y-5653D03*
G54D14*
X16732Y-14653D03*
X15944Y-17015D03*
X15944Y-12291D03*
X11220Y-12291D03*
X11220Y-17015D03*
X8007Y-29653D03*
X9976Y-29653D03*
X11944Y-29653D03*
X6039Y-29653D03*
G54D15*
X21976Y-12153D03*
X22976Y-12153D03*
G54D16*
X23976Y-12153D03*
G54D17*
X5582Y-35669D03*
X5582Y-37637D03*
X5582Y-22669D03*
X5582Y-24637D03*
X5082Y-14169D03*
X5082Y-16137D03*
X5082Y-4169D03*
X5082Y-6137D03*
X12401Y-23653D03*
X15551Y-23653D03*
X38976Y-24748D03*
X38976Y-36165D03*
X33070Y-20653D03*
X44488Y-20653D03*
X43976Y-24748D03*
X43976Y-36165D03*
X33976Y-24748D03*
X33976Y-36165D03*
X28976Y-24748D03*
X28976Y-36165D03*
X23976Y-24748D03*
X23976Y-36165D03*
G54D18*
X11976Y-4153D03*
X8976Y-4153D03*
X27976Y-11653D03*
X30976Y-11653D03*
X30976Y-10653D03*
X27976Y-10653D03*
X21476Y-9653D03*
X24476Y-9653D03*
X40976Y-13153D03*
X37976Y-13153D03*
X44476Y-18653D03*
X44476Y-15653D03*
G54D19*
X26476Y-9653D03*
X25476Y-9653D03*
X13476Y-4153D03*
X14476Y-4153D03*
G54D20*
X34976Y-15653D03*
G54D21*
X40976Y-15653D03*
G54D20*
X18976Y-23653D03*
G54D21*
X18976Y-29653D03*
G54D15*
X15476Y-9653D03*
G54D16*
X11476Y-9653D03*
X34976Y-12153D03*
G54D15*
X32976Y-12153D03*
G54D22*
X5082Y-6137D02*
X9492Y-6137D01*
X33726Y-2903D02*
X36476Y-5653D01*
X11726Y-2903D02*
X33726Y-2903D01*
X10476Y-4153D02*
X11726Y-2903D01*
X10476Y-5153D02*
X10476Y-4153D01*
X9492Y-6137D02*
X10476Y-5153D01*
X35376Y-5653D02*
X34226Y-5653D01*
X12476Y-9653D02*
X11476Y-9653D01*
X14726Y-7403D02*
X12476Y-9653D01*
X32476Y-7403D02*
X14726Y-7403D01*
X34226Y-5653D02*
X32476Y-7403D01*
X15944Y-17015D02*
X15614Y-17015D01*
X7476Y-9653D02*
X11476Y-9653D01*
X3976Y-13153D02*
X7476Y-9653D01*
X3976Y-17653D02*
X3976Y-13153D01*
X5476Y-19153D02*
X3976Y-17653D01*
X13476Y-19153D02*
X5476Y-19153D01*
X15614Y-17015D02*
X13476Y-19153D01*
X37526Y-5653D02*
X37526Y-5453D01*
X10976Y-2153D02*
X8976Y-4153D01*
X34226Y-2153D02*
X10976Y-2153D01*
X37526Y-5453D02*
X34226Y-2153D01*
X8976Y-4153D02*
X5098Y-4153D01*
X5098Y-4153D02*
X5082Y-4169D01*
X37976Y-10653D02*
X37976Y-8903D01*
X36976Y-7903D02*
X36976Y-6653D01*
X37976Y-8903D02*
X36976Y-7903D01*
X37976Y-13153D02*
X37976Y-10653D01*
X34976Y-12153D02*
X36976Y-12153D01*
X36976Y-12153D02*
X37976Y-13153D01*
X34826Y-6653D02*
X34826Y-6803D01*
X34826Y-6803D02*
X30976Y-10653D01*
X30976Y-10653D02*
X30976Y-11653D01*
X14476Y-4153D02*
X14476Y-5153D01*
X5726Y-20653D02*
X15726Y-20653D01*
X3226Y-18153D02*
X5726Y-20653D01*
X3226Y-12653D02*
X3226Y-18153D01*
X7476Y-8403D02*
X3226Y-12653D01*
X11226Y-8403D02*
X7476Y-8403D01*
X14476Y-5153D02*
X11226Y-8403D01*
G54D23*
X23976Y-12153D02*
X23976Y-15403D01*
X23976Y-15403D02*
X18726Y-20653D01*
X18726Y-20653D02*
X18726Y-20403D01*
X18726Y-20403D02*
X18726Y-20653D01*
X18976Y-29653D02*
X11944Y-29653D01*
X33070Y-20653D02*
X18726Y-20653D01*
X18726Y-20653D02*
X15726Y-20653D01*
X15726Y-20653D02*
X13976Y-22403D01*
X13976Y-22403D02*
X13976Y-27622D01*
X13976Y-27622D02*
X11944Y-29653D01*
G54D22*
X35926Y-6653D02*
X35926Y-9603D01*
X35926Y-9603D02*
X36976Y-10653D01*
X24476Y-9653D02*
X25476Y-9653D01*
X24476Y-9653D02*
X24476Y-11653D01*
X24476Y-11653D02*
X23976Y-12153D01*
X36976Y-10653D02*
X34476Y-10653D01*
X32976Y-11153D02*
X32976Y-12153D01*
X33476Y-10653D02*
X32976Y-11153D01*
X34476Y-10653D02*
X33476Y-10653D01*
X34976Y-15653D02*
X34476Y-15653D01*
X32976Y-14153D02*
X32976Y-12153D01*
X34476Y-15653D02*
X32976Y-14153D01*
X34976Y-15653D02*
X34976Y-18748D01*
X34976Y-18748D02*
X33070Y-20653D01*
X27976Y-11653D02*
X27476Y-11653D01*
X26476Y-10653D02*
X26476Y-9653D01*
X27476Y-11653D02*
X26476Y-10653D01*
G54D23*
X6039Y-29653D02*
X6039Y-28590D01*
X10976Y-23653D02*
X12401Y-23653D01*
X6039Y-28590D02*
X10976Y-23653D01*
X23976Y-24748D02*
X28976Y-24748D01*
X28976Y-36165D02*
X33976Y-36165D01*
X33976Y-24748D02*
X38976Y-24748D01*
X38976Y-36165D02*
X43976Y-36165D01*
X5582Y-37637D02*
X5582Y-35669D01*
X5582Y-35669D02*
X9976Y-31275D01*
X9976Y-31275D02*
X9976Y-29653D01*
X18976Y-23653D02*
X18976Y-24653D01*
X23976Y-29653D02*
X23976Y-36165D01*
X18976Y-24653D02*
X23976Y-29653D01*
X15551Y-23653D02*
X18976Y-23653D01*
X40976Y-15653D02*
X40976Y-13153D01*
X44476Y-15653D02*
X40976Y-15653D01*
X44488Y-20653D02*
X44488Y-18665D01*
X44488Y-18665D02*
X44476Y-18653D01*
X43976Y-24748D02*
X43976Y-21165D01*
X43976Y-21165D02*
X44488Y-20653D01*
X5582Y-24637D02*
X5582Y-22669D01*
X8007Y-29653D02*
X8007Y-30622D01*
X5582Y-26047D02*
X5582Y-24637D01*
X3476Y-28153D02*
X5582Y-26047D01*
X3476Y-30653D02*
X3476Y-28153D01*
X4976Y-32153D02*
X3476Y-30653D01*
X6476Y-32153D02*
X4976Y-32153D01*
X8007Y-30622D02*
X6476Y-32153D01*
G54D22*
X5082Y-16137D02*
X10342Y-16137D01*
X10342Y-16137D02*
X11220Y-17015D01*
X5082Y-14169D02*
X16248Y-14169D01*
X16248Y-14169D02*
X16732Y-14653D01*
X22976Y-12153D02*
X22976Y-13153D01*
X18614Y-12291D02*
X15944Y-12291D01*
X19976Y-13653D02*
X18614Y-12291D01*
X22476Y-13653D02*
X19976Y-13653D01*
X22976Y-13153D02*
X22476Y-13653D01*
X15944Y-12291D02*
X15944Y-10122D01*
X15944Y-10122D02*
X15476Y-9653D01*
X27976Y-10653D02*
X27976Y-9653D01*
X22476Y-8653D02*
X21476Y-9653D01*
X26976Y-8653D02*
X22476Y-8653D01*
X27976Y-9653D02*
X26976Y-8653D01*
X21976Y-12153D02*
X21476Y-11653D01*
X21476Y-11653D02*
X21476Y-9653D01*
X11976Y-4153D02*
X13476Y-4153D01*
M02*
