M48
;DRILL file {Pcbnew (2013-may-18)-stable} date Sun 29 Dec 2013 06:13:29 PM EET
;FORMAT={-:-/ absolute / metric / decimal}
FMAT,2
METRIC,TZ
T1C0.813
T2C1.000
T3C1.016
T4C1.100
T5C1.270
T6C1.300
T7C3.048
%
G90
G05
M71
T1
X22.8Y-10.55
X30.42Y-10.55
X34.23Y-10.55
X36.77Y-10.55
X54.55Y-24.52
X62.17Y-24.52
X64.71Y-24.52
X67.25Y-24.52
X71.06Y-27.06
X71.06Y-29.6
X78.68Y-27.06
X78.68Y-29.6
X96.46Y-33.41
X104.08Y-33.41
X112.97Y-39.76
X112.97Y-47.38
T2
X93.92Y-27.06
X96.46Y-27.06
T3
X29.15Y-24.52
X39.31Y-24.52
X55.82Y-30.87
X58.36Y-30.87
X60.9Y-30.87
X83.76Y-30.87
X88.459Y-16.9
X88.84Y-30.87
X89.856Y-14.36
X91.253Y-16.9
X92.65Y-14.36
X93.92Y-16.9
X95.317Y-14.36
X96.714Y-16.9
X98.111Y-14.36
X99.508Y-16.9
T4
X12.91Y-10.59
X12.91Y-15.59
X12.91Y-35.99
X12.91Y-40.99
X14.18Y-57.58
X14.18Y-62.58
X14.18Y-90.6
X14.18Y-95.6
X31.5Y-60.08
X39.5Y-60.08
X60.9Y-62.86
X60.9Y-91.86
X73.6Y-62.86
X73.6Y-91.86
X84.Y-52.46
X86.3Y-62.86
X86.3Y-91.86
X99.Y-62.86
X99.Y-91.86
X111.7Y-62.86
X111.7Y-91.86
X113.Y-52.46
T5
X48.2Y-60.08
X48.2Y-75.32
X88.84Y-39.76
X104.08Y-39.76
T6
X15.34Y-75.32
X20.34Y-75.32
X25.34Y-75.32
X28.5Y-31.22
X28.5Y-43.22
X30.34Y-75.32
X40.5Y-31.22
X40.5Y-43.22
X42.5Y-37.22
T7
X81.347Y-14.36
X106.747Y-14.36
T0
M30
