<?xml version="1.0" standalone="no"?>
 <!DOCTYPE svg PUBLIC "-//W3C//DTD SVG 1.1//EN" 
 "http://www.w3.org/Graphics/SVG/1.1/DTD/svg11.dtd"> 
<svg xmlns="http://www.w3.org/2000/svg" version="1.1" 
    width="15.6388cm" height="11.6764cm" viewBox="0 0 61570 45970 ">
<title>SVG Picture created as sensor_board--brd.svg date 2013/12/28 20:43:43 </title>
  <desc>Picture generated by PCBNEW </desc>
<g style="fill:#000000; fill-opacity:1;stroke:#000000; stroke-opacity:1;
stroke-linecap:round; stroke-linejoin:round; "
 transform="translate(0 0) scale(1 1)">
</g>
<g style="fill:#FFFF00; fill-opacity:0.0; 
stroke:#FFFF00; stroke-width:118.11; stroke-opacity:1; 
stroke-linecap:round; stroke-linejoin:round;">
<path d="M56059 25800
L56059 26137
" />
<path d="M56059 25969
L55469 25969
L55553 26025
L55609 26081
L55638 26137
" />
<path d="M55469 25434
L55469 25378
L55497 25322
L55525 25294
L55581 25266
L55694 25237
L55834 25237
L55947 25266
L56003 25294
L56031 25322
L56059 25378
L56059 25434
L56031 25490
L56003 25519
L55947 25547
L55834 25575
L55694 25575
L55581 25547
L55525 25519
L55497 25490
L55469 25434
" />
<path d="M55469 24872
L55469 24816
L55497 24759
L55525 24731
L55581 24703
L55694 24675
L55834 24675
L55947 24703
L56003 24731
L56031 24759
L56059 24816
L56059 24872
L56031 24928
L56003 24956
L55947 24984
L55834 25012
L55694 25012
L55581 24984
L55525 24956
L55497 24928
L55469 24872
" />
<path d="M56003 24422
L56031 24394
L56059 24422
L56031 24450
L56003 24422
L56059 24422
" />
<path d="M55469 24197
L55469 23831
L55694 24028
L55694 23944
L55722 23888
L55750 23859
L55806 23831
L55947 23831
L56003 23859
L56031 23888
L56059 23944
L56059 24113
L56031 24169
L56003 24197
" />
<path d="M55469 23634
L55469 23269
L55694 23466
L55694 23381
L55722 23325
L55750 23297
L55806 23269
L55947 23269
L56003 23297
L56031 23325
L56059 23381
L56059 23550
L56031 23606
L56003 23634
" />
<path d="M55469 22903
L55469 22847
L55497 22791
L55525 22763
L55581 22735
L55694 22706
L55834 22706
L55947 22735
L56003 22763
L56031 22791
L56059 22847
L56059 22903
L56031 22960
L56003 22988
L55947 23016
L55834 23044
L55694 23044
L55581 23016
L55525 22988
L55497 22960
L55469 22903
" />
<path d="M56059 22003
L55666 22003
" />
<path d="M55722 22003
L55694 21975
L55666 21919
L55666 21835
L55694 21778
L55750 21750
L56059 21750
" />
<path d="M55750 21750
L55694 21722
L55666 21666
L55666 21582
L55694 21525
L55750 21497
L56059 21497
" />
<path d="M56059 21216
L55666 21216
" />
<path d="M55722 21216
L55694 21188
L55666 21132
L55666 21047
L55694 20991
L55750 20963
L56059 20963
" />
<path d="M55750 20963
L55694 20935
L55666 20879
L55666 20794
L55694 20738
L55750 20710
L56059 20710
" />
<path d="M55289 43160
L55289 3660
" />
<path d="M47289 43160
L56352 43160
" />
<path d="M47289 3660
L56352 3660
" />
<path d="M55289 3660
L55520 4103
" />
<path d="M55289 3660
L55058 4103
" />
<path d="M55289 43160
L55520 42716
" />
<path d="M55289 43160
L55058 42716
" />
<path d="M21899 45680
L21561 45680
" />
<path d="M21730 45680
L21730 45089
L21674 45174
L21617 45230
L21561 45258
" />
<path d="M22124 45146
L22152 45118
L22208 45089
L22348 45089
L22405 45118
L22433 45146
L22461 45202
L22461 45258
L22433 45343
L22095 45680
L22461 45680
" />
<path d="M22658 45089
L23023 45089
L22827 45314
L22911 45314
L22967 45343
L22995 45371
L23023 45427
L23023 45568
L22995 45624
L22967 45652
L22911 45680
L22742 45680
L22686 45652
L22658 45624
" />
<path d="M23276 45624
L23305 45652
L23276 45680
L23248 45652
L23276 45624
L23276 45680
" />
<path d="M23867 45680
L23530 45680
" />
<path d="M23698 45680
L23698 45089
L23642 45174
L23586 45230
L23530 45258
" />
<path d="M24148 45680
L24261 45680
L24317 45652
L24345 45624
L24401 45539
L24429 45427
L24429 45202
L24401 45146
L24373 45118
L24317 45089
L24205 45089
L24148 45118
L24120 45146
L24092 45202
L24092 45343
L24120 45399
L24148 45427
L24205 45455
L24317 45455
L24373 45427
L24401 45399
L24429 45343
" />
<path d="M24795 45089
L24851 45089
L24908 45118
L24936 45146
L24964 45202
L24992 45314
L24992 45455
L24964 45568
L24936 45624
L24908 45652
L24851 45680
L24795 45680
L24739 45652
L24711 45624
L24683 45568
L24654 45455
L24654 45314
L24683 45202
L24711 45146
L24739 45118
L24795 45089
" />
<path d="M25695 45680
L25695 45286
" />
<path d="M25695 45343
L25723 45314
L25779 45286
L25864 45286
L25920 45314
L25948 45371
L25948 45680
" />
<path d="M25948 45371
L25976 45314
L26032 45286
L26117 45286
L26173 45314
L26201 45371
L26201 45680
" />
<path d="M26482 45680
L26482 45286
" />
<path d="M26482 45343
L26510 45314
L26567 45286
L26651 45286
L26707 45314
L26735 45371
L26735 45680
" />
<path d="M26735 45371
L26764 45314
L26820 45286
L26904 45286
L26960 45314
L26989 45371
L26989 45680
" />
<path d="M39 44910
L48539 44910
" />
<path d="M39 42910
L39 45972
" />
<path d="M48539 42910
L48539 45972
" />
<path d="M48539 44910
L48095 45140
" />
<path d="M48539 44910
L48095 44679
" />
<path d="M39 44910
L482 45140
" />
<path d="M39 44910
L482 44679
" />
</g>
<g style="fill:#FFFF00; fill-opacity:0.0; 
stroke:#FFFF00; stroke-width:78.7402; stroke-opacity:1; 
stroke-linecap:round; stroke-linejoin:round;">
<path d="M48539 43160
L48539 3660
" />
<path d="M39 43160
L2039 43160
" />
<path d="M39 3660
L39 43160
" />
<path d="M39 3660
L54039 3660
" />
<path d="M15039 10660
L2039 10660
" />
<path d="M2039 43160
L61539 43160
" />
</g>
<g style="fill:#808000; fill-opacity:0.0; 
stroke:#808000; stroke-width:39.3701; stroke-opacity:1; 
stroke-linecap:round; stroke-linejoin:round;">
</g>
<g style="fill:#808000; fill-opacity:1.0; 
stroke:#808000; stroke-width:39.3701; stroke-opacity:1; 
stroke-linecap:round; stroke-linejoin:round;">
<circle cx="22039.4" cy="15660" r="330.315" /> 
<circle cx="23039.4" cy="15660" r="330.315" /> 
<polyline style="fill-rule:evenodd;"
points="24369,15990
23709,15990
23709,15329
24369,15329
24369,15990
" /> 
<circle cx="38039.4" cy="14160" r="255.315" /> 
<circle cx="37039.4" cy="14160" r="255.315" /> 
<circle cx="5645.67" cy="39175.7" r="472.441" /> 
<circle cx="5645.67" cy="41144.3" r="472.441" /> 
<circle cx="5645.67" cy="26175.7" r="472.441" /> 
<circle cx="5645.67" cy="28144.3" r="472.441" /> 
<circle cx="5145.67" cy="17675.7" r="472.441" /> 
<circle cx="5145.67" cy="19644.3" r="472.441" /> 
<circle cx="5145.67" cy="7675.75" r="472.441" /> 
<circle cx="5145.67" cy="9644.25" r="472.441" /> 
<circle cx="12464.6" cy="27160" r="472.441" /> 
<circle cx="15614.2" cy="27160" r="472.441" /> 
<circle cx="39039.4" cy="28254.5" r="472.441" /> 
<circle cx="39039.4" cy="39671.8" r="472.441" /> 
<circle cx="33133.9" cy="24160" r="472.441" /> 
<circle cx="44551.2" cy="24160" r="472.441" /> 
<circle cx="44039.4" cy="28254.5" r="472.441" /> 
<circle cx="44039.4" cy="39671.8" r="472.441" /> 
<circle cx="34039.4" cy="28254.5" r="472.441" /> 
<circle cx="34039.4" cy="39671.8" r="472.441" /> 
<circle cx="29039.4" cy="28254.5" r="472.441" /> 
<circle cx="29039.4" cy="39671.8" r="472.441" /> 
<circle cx="24039.4" cy="28254.5" r="472.441" /> 
<circle cx="24039.4" cy="39671.8" r="472.441" /> 
<circle cx="12039.4" cy="7660" r="305.315" /> 
<circle cx="9039.37" cy="7660" r="305.315" /> 
<circle cx="28039.4" cy="15160" r="305.315" /> 
<circle cx="31039.4" cy="15160" r="305.315" /> 
<circle cx="31039.4" cy="14160" r="305.315" /> 
<circle cx="28039.4" cy="14160" r="305.315" /> 
<circle cx="21539.4" cy="13160" r="305.315" /> 
<circle cx="24539.4" cy="13160" r="305.315" /> 
<circle cx="41039.4" cy="16660" r="305.315" /> 
<circle cx="38039.4" cy="16660" r="305.315" /> 
<circle cx="44539.4" cy="22160" r="305.315" /> 
<circle cx="44539.4" cy="19160" r="305.315" /> 
<circle cx="26539.4" cy="13160" r="310.315" /> 
<circle cx="25539.4" cy="13160" r="310.315" /> 
<circle cx="13539.4" cy="7660" r="310.315" /> 
<circle cx="14539.4" cy="7660" r="310.315" /> 
<circle cx="42089.4" cy="9160" r="730.315" /> 
<circle cx="32089.4" cy="9160" r="730.315" /> 
<polyline style="fill-rule:evenodd;"
points="34609,10440
34609,9879
35169,9879
35169,10440
34609,10440
" /> 
<circle cx="35989.4" cy="10160" r="280.315" /> 
<circle cx="37039.4" cy="10160" r="280.315" /> 
<circle cx="38139.4" cy="10160" r="280.315" /> 
<circle cx="39239.4" cy="10160" r="280.315" /> 
<circle cx="35439.4" cy="9160" r="280.315" /> 
<circle cx="36539.4" cy="9160" r="280.315" /> 
<circle cx="37589.4" cy="9160" r="280.315" /> 
<circle cx="38689.4" cy="9160" r="280.315" /> 
<circle cx="35039.4" cy="19160" r="480.315" /> 
<polyline style="fill-rule:evenodd;"
points="40559,19640
40559,18679
41519,18679
41519,19640
40559,19640
" /> 
<circle cx="19039.4" cy="27160" r="480.315" /> 
<polyline style="fill-rule:evenodd;"
points="18559,32679
19519,32679
19519,33640
18559,33640
18559,32679
" /> 
<circle cx="15539.4" cy="13160" r="330.315" /> 
<polyline style="fill-rule:evenodd;"
points="11869,12829
11869,13490
11209,13490
11209,12829
11869,12829
" /> 
<polyline style="fill-rule:evenodd;"
points="35369,15329
35369,15990
34709,15990
34709,15329
35369,15329
" /> 
<circle cx="33039.4" cy="15660" r="330.315" /> 
<circle cx="8070.87" cy="33160" r="472.441" /> 
<circle cx="10039.4" cy="33160" r="413.386" /> 
<circle cx="12007.9" cy="33160" r="413.386" /> 
<circle cx="6102.36" cy="33160" r="472.441" /> 
<circle cx="16795.3" cy="18160" r="413.386" /> 
<circle cx="16007.9" cy="20522.2" r="413.386" /> 
<circle cx="16007.9" cy="15797.8" r="413.386" /> 
<circle cx="11283.5" cy="15797.8" r="413.386" /> 
<circle cx="11283.5" cy="20522.2" r="413.386" /> 
</g>
<g style="fill:#00A000; fill-opacity:1.0; 
stroke:#00A000; stroke-width:393.701; stroke-opacity:1; 
stroke-linecap:round; stroke-linejoin:round;">
<path d="M5145 9644
L9555 9644
" />
<path d="M33789 6410
L36539 9160
" />
<path d="M11789 6410
L33789 6410
" />
<path d="M10539 7660
L11789 6410
" />
<path d="M10539 8660
L10539 7660
" />
<path d="M9555 9644
L10539 8660
" />
<path d="M35439 9160
L34289 9160
" />
<path d="M12539 13160
L11539 13160
" />
<path d="M14789 10910
L12539 13160
" />
<path d="M32539 10910
L14789 10910
" />
<path d="M34289 9160
L32539 10910
" />
<path d="M16007 20522
L15677 20522
" />
<path d="M7539 13160
L11539 13160
" />
<path d="M4039 16660
L7539 13160
" />
<path d="M4039 21160
L4039 16660
" />
<path d="M5539 22660
L4039 21160
" />
<path d="M13539 22660
L5539 22660
" />
<path d="M15677 20522
L13539 22660
" />
<path d="M37589 9160
L37589 8960
" />
<path d="M11039 5660
L9039 7660
" />
<path d="M34289 5660
L11039 5660
" />
<path d="M37589 8960
L34289 5660
" />
<path d="M9039 7660
L5161 7660
" />
<path d="M5161 7660
L5145 7675
" />
<path d="M38039 14160
L38039 12410
" />
<path d="M37039 11410
L37039 10160
" />
<path d="M38039 12410
L37039 11410
" />
<path d="M38039 16660
L38039 14160
" />
<path d="M35039 15660
L37039 15660
" />
<path d="M37039 15660
L38039 16660
" />
<path d="M34889 10160
L34889 10310
" />
<path d="M34889 10310
L31039 14160
" />
<path d="M31039 14160
L31039 15160
" />
<path d="M14539 7660
L14539 8660
" />
<path d="M5789 24160
L15789 24160
" />
<path d="M3289 21660
L5789 24160
" />
<path d="M3289 16160
L3289 21660
" />
<path d="M7539 11910
L3289 16160
" />
<path d="M11289 11910
L7539 11910
" />
<path d="M14539 8660
L11289 11910
" />
</g>
<g style="fill:#00A000; fill-opacity:1.0; 
stroke:#00A000; stroke-width:787.402; stroke-opacity:1; 
stroke-linecap:round; stroke-linejoin:round;">
<path d="M24039 15660
L24039 18910
" />
<path d="M24039 18910
L18789 24160
" />
<path d="M18789 24160
L18789 23910
" />
<path d="M18789 23910
L18789 24160
" />
<path d="M19039 33160
L12007 33160
" />
<path d="M33133 24160
L18789 24160
" />
<path d="M18789 24160
L15789 24160
" />
<path d="M15789 24160
L14039 25910
" />
<path d="M14039 25910
L14039 31128
" />
<path d="M14039 31128
L12007 33160
" />
</g>
<g style="fill:#00A000; fill-opacity:1.0; 
stroke:#00A000; stroke-width:393.701; stroke-opacity:1; 
stroke-linecap:round; stroke-linejoin:round;">
<path d="M35989 10160
L35989 13110
" />
<path d="M35989 13110
L37039 14160
" />
<path d="M24539 13160
L25539 13160
" />
<path d="M24539 13160
L24539 15160
" />
<path d="M24539 15160
L24039 15660
" />
<path d="M37039 14160
L34539 14160
" />
<path d="M33039 14660
L33039 15660
" />
<path d="M33539 14160
L33039 14660
" />
<path d="M34539 14160
L33539 14160
" />
<path d="M35039 19160
L34539 19160
" />
<path d="M33039 17660
L33039 15660
" />
<path d="M34539 19160
L33039 17660
" />
<path d="M35039 19160
L35039 22254
" />
<path d="M35039 22254
L33133 24160
" />
<path d="M28039 15160
L27539 15160
" />
<path d="M26539 14160
L26539 13160
" />
<path d="M27539 15160
L26539 14160
" />
</g>
<g style="fill:#00A000; fill-opacity:1.0; 
stroke:#00A000; stroke-width:787.402; stroke-opacity:1; 
stroke-linecap:round; stroke-linejoin:round;">
<path d="M6102 33160
L6102 32097
" />
<path d="M11039 27160
L12464 27160
" />
<path d="M6102 32097
L11039 27160
" />
<path d="M24039 28254
L29039 28254
" />
<path d="M29039 39671
L34039 39671
" />
<path d="M34039 28254
L39039 28254
" />
<path d="M39039 39671
L44039 39671
" />
<path d="M5645 41144
L5645 39175
" />
<path d="M5645 39175
L10039 34782
" />
<path d="M10039 34782
L10039 33160
" />
<path d="M19039 27160
L19039 28160
" />
<path d="M24039 33160
L24039 39671
" />
<path d="M19039 28160
L24039 33160
" />
<path d="M15614 27160
L19039 27160
" />
<path d="M41039 19160
L41039 16660
" />
<path d="M44539 19160
L41039 19160
" />
<path d="M44551 24160
L44551 22171
" />
<path d="M44551 22171
L44539 22160
" />
<path d="M44039 28254
L44039 24671
" />
<path d="M44039 24671
L44551 24160
" />
<path d="M5645 28144
L5645 26175
" />
<path d="M8070 33160
L8070 34128
" />
<path d="M5645 29553
L5645 28144
" />
<path d="M3539 31660
L5645 29553
" />
<path d="M3539 34160
L3539 31660
" />
<path d="M5039 35660
L3539 34160
" />
<path d="M6539 35660
L5039 35660
" />
<path d="M8070 34128
L6539 35660
" />
</g>
<g style="fill:#00A000; fill-opacity:1.0; 
stroke:#00A000; stroke-width:393.701; stroke-opacity:1; 
stroke-linecap:round; stroke-linejoin:round;">
<path d="M5145 19644
L10405 19644
" />
<path d="M10405 19644
L11283 20522
" />
<path d="M5145 17675
L16311 17675
" />
<path d="M16311 17675
L16795 18160
" />
<path d="M23039 15660
L23039 16660
" />
<path d="M18677 15797
L16007 15797
" />
<path d="M20039 17160
L18677 15797
" />
<path d="M22539 17160
L20039 17160
" />
<path d="M23039 16660
L22539 17160
" />
<path d="M16007 15797
L16007 13628
" />
<path d="M16007 13628
L15539 13160
" />
<path d="M28039 14160
L28039 13160
" />
<path d="M22539 12160
L21539 13160
" />
<path d="M27039 12160
L22539 12160
" />
<path d="M28039 13160
L27039 12160
" />
<path d="M22039 15660
L21539 15160
" />
<path d="M21539 15160
L21539 13160
" />
<path d="M12039 7660
L13539 7660
" />
</g>
<g style="fill:#FFFFFF; fill-opacity:1.0; 
stroke:#FFFFFF; stroke-width:39.3701; stroke-opacity:1; 
stroke-linecap:round; stroke-linejoin:round;">
<circle cx="22039.4" cy="15660" r="180.315" /> 
<circle cx="23039.4" cy="15660" r="180.315" /> 
<circle cx="24039.4" cy="15660" r="180.315" /> 
<circle cx="38039.4" cy="14160" r="140.315" /> 
<circle cx="37039.4" cy="14160" r="140.315" /> 
<circle cx="5645.67" cy="39175.7" r="196.85" /> 
<circle cx="5645.67" cy="41144.3" r="196.85" /> 
<circle cx="5645.67" cy="26175.7" r="196.85" /> 
<circle cx="5645.67" cy="28144.3" r="196.85" /> 
<circle cx="5145.67" cy="17675.7" r="196.85" /> 
<circle cx="5145.67" cy="19644.3" r="196.85" /> 
<circle cx="5145.67" cy="7675.75" r="196.85" /> 
<circle cx="5145.67" cy="9644.25" r="196.85" /> 
<circle cx="12464.6" cy="27160" r="196.85" /> 
<circle cx="15614.2" cy="27160" r="196.85" /> 
<circle cx="39039.4" cy="28254.5" r="196.85" /> 
<circle cx="39039.4" cy="39671.8" r="196.85" /> 
<circle cx="33133.9" cy="24160" r="196.85" /> 
<circle cx="44551.2" cy="24160" r="196.85" /> 
<circle cx="44039.4" cy="28254.5" r="196.85" /> 
<circle cx="44039.4" cy="39671.8" r="196.85" /> 
<circle cx="34039.4" cy="28254.5" r="196.85" /> 
<circle cx="34039.4" cy="39671.8" r="196.85" /> 
<circle cx="29039.4" cy="28254.5" r="196.85" /> 
<circle cx="29039.4" cy="39671.8" r="196.85" /> 
<circle cx="24039.4" cy="28254.5" r="196.85" /> 
<circle cx="24039.4" cy="39671.8" r="196.85" /> 
<circle cx="12039.4" cy="7660" r="140.315" /> 
<circle cx="9039.37" cy="7660" r="140.315" /> 
<circle cx="28039.4" cy="15160" r="140.315" /> 
<circle cx="31039.4" cy="15160" r="140.315" /> 
<circle cx="31039.4" cy="14160" r="140.315" /> 
<circle cx="28039.4" cy="14160" r="140.315" /> 
<circle cx="21539.4" cy="13160" r="140.315" /> 
<circle cx="24539.4" cy="13160" r="140.315" /> 
<circle cx="41039.4" cy="16660" r="140.315" /> 
<circle cx="38039.4" cy="16660" r="140.315" /> 
<circle cx="44539.4" cy="22160" r="140.315" /> 
<circle cx="44539.4" cy="19160" r="140.315" /> 
<circle cx="26539.4" cy="13160" r="140.315" /> 
<circle cx="25539.4" cy="13160" r="140.315" /> 
<circle cx="13539.4" cy="7660" r="140.315" /> 
<circle cx="14539.4" cy="7660" r="140.315" /> 
<circle cx="42089.4" cy="9160" r="580.315" /> 
<circle cx="32089.4" cy="9160" r="580.315" /> 
<circle cx="34889.4" cy="10160" r="180.315" /> 
<circle cx="35989.4" cy="10160" r="180.315" /> 
<circle cx="37039.4" cy="10160" r="180.315" /> 
<circle cx="38139.4" cy="10160" r="180.315" /> 
<circle cx="39239.4" cy="10160" r="180.315" /> 
<circle cx="35439.4" cy="9160" r="180.315" /> 
<circle cx="36539.4" cy="9160" r="180.315" /> 
<circle cx="37589.4" cy="9160" r="180.315" /> 
<circle cx="38689.4" cy="9160" r="180.315" /> 
<circle cx="35039.4" cy="19160" r="230.315" /> 
<circle cx="41039.4" cy="19160" r="230.315" /> 
<circle cx="19039.4" cy="27160" r="230.315" /> 
<circle cx="19039.4" cy="33160" r="230.315" /> 
<circle cx="15539.4" cy="13160" r="180.315" /> 
<circle cx="11539.4" cy="13160" r="180.315" /> 
<circle cx="35039.4" cy="15660" r="180.315" /> 
<circle cx="33039.4" cy="15660" r="180.315" /> 
<circle cx="8070.87" cy="33160" r="236.22" /> 
<circle cx="10039.4" cy="33160" r="236.22" /> 
<circle cx="12007.9" cy="33160" r="236.22" /> 
<circle cx="6102.36" cy="33160" r="236.22" /> 
<circle cx="16795.3" cy="18160" r="177.165" /> 
<circle cx="16007.9" cy="20522.2" r="177.165" /> 
<circle cx="16007.9" cy="15797.8" r="177.165" /> 
<circle cx="11283.5" cy="15797.8" r="177.165" /> 
<circle cx="11283.5" cy="20522.2" r="177.165" /> 
</g> 
</svg>
