<?xml version="1.0" standalone="no"?>
 <!DOCTYPE svg PUBLIC "-//W3C//DTD SVG 1.1//EN" 
 "http://www.w3.org/Graphics/SVG/1.1/DTD/svg11.dtd"> 
<svg xmlns="http://www.w3.org/2000/svg" version="1.1" 
    width="15.6388cm" height="11.6764cm" viewBox="0 0 61570 45970 ">
<title>SVG Picture created as sensor_board--brd.svg date 2013/12/28 23:20:06 </title>
  <desc>Picture generated by PCBNEW </desc>
<g style="fill:#000000; fill-opacity:1;stroke:#000000; stroke-opacity:1;
stroke-linecap:round; stroke-linejoin:round; "
 transform="translate(0 0) scale(1 1)">
</g>
<g style="fill:#FFFF00; fill-opacity:0.0; 
stroke:#FFFF00; stroke-width:118.11; stroke-opacity:1; 
stroke-linecap:round; stroke-linejoin:round;">
<path d="M56059 25800
L56059 26137
" />
<path d="M56059 25969
L55469 25969
L55553 26025
L55609 26081
L55638 26137
" />
<path d="M55469 25434
L55469 25378
L55497 25322
L55525 25294
L55581 25266
L55694 25237
L55834 25237
L55947 25266
L56003 25294
L56031 25322
L56059 25378
L56059 25434
L56031 25490
L56003 25519
L55947 25547
L55834 25575
L55694 25575
L55581 25547
L55525 25519
L55497 25490
L55469 25434
" />
<path d="M55469 24872
L55469 24816
L55497 24759
L55525 24731
L55581 24703
L55694 24675
L55834 24675
L55947 24703
L56003 24731
L56031 24759
L56059 24816
L56059 24872
L56031 24928
L56003 24956
L55947 24984
L55834 25012
L55694 25012
L55581 24984
L55525 24956
L55497 24928
L55469 24872
" />
<path d="M56003 24422
L56031 24394
L56059 24422
L56031 24450
L56003 24422
L56059 24422
" />
<path d="M55469 24197
L55469 23831
L55694 24028
L55694 23944
L55722 23888
L55750 23859
L55806 23831
L55947 23831
L56003 23859
L56031 23888
L56059 23944
L56059 24113
L56031 24169
L56003 24197
" />
<path d="M55469 23634
L55469 23269
L55694 23466
L55694 23381
L55722 23325
L55750 23297
L55806 23269
L55947 23269
L56003 23297
L56031 23325
L56059 23381
L56059 23550
L56031 23606
L56003 23634
" />
<path d="M55469 22903
L55469 22847
L55497 22791
L55525 22763
L55581 22735
L55694 22706
L55834 22706
L55947 22735
L56003 22763
L56031 22791
L56059 22847
L56059 22903
L56031 22960
L56003 22988
L55947 23016
L55834 23044
L55694 23044
L55581 23016
L55525 22988
L55497 22960
L55469 22903
" />
<path d="M56059 22003
L55666 22003
" />
<path d="M55722 22003
L55694 21975
L55666 21919
L55666 21835
L55694 21778
L55750 21750
L56059 21750
" />
<path d="M55750 21750
L55694 21722
L55666 21666
L55666 21582
L55694 21525
L55750 21497
L56059 21497
" />
<path d="M56059 21216
L55666 21216
" />
<path d="M55722 21216
L55694 21188
L55666 21132
L55666 21047
L55694 20991
L55750 20963
L56059 20963
" />
<path d="M55750 20963
L55694 20935
L55666 20879
L55666 20794
L55694 20738
L55750 20710
L56059 20710
" />
<path d="M55289 43160
L55289 3660
" />
<path d="M47289 43160
L56352 43160
" />
<path d="M47289 3660
L56352 3660
" />
<path d="M55289 3660
L55520 4103
" />
<path d="M55289 3660
L55058 4103
" />
<path d="M55289 43160
L55520 42716
" />
<path d="M55289 43160
L55058 42716
" />
<path d="M21899 45680
L21561 45680
" />
<path d="M21730 45680
L21730 45089
L21674 45174
L21617 45230
L21561 45258
" />
<path d="M22124 45146
L22152 45118
L22208 45089
L22348 45089
L22405 45118
L22433 45146
L22461 45202
L22461 45258
L22433 45343
L22095 45680
L22461 45680
" />
<path d="M22658 45089
L23023 45089
L22827 45314
L22911 45314
L22967 45343
L22995 45371
L23023 45427
L23023 45568
L22995 45624
L22967 45652
L22911 45680
L22742 45680
L22686 45652
L22658 45624
" />
<path d="M23276 45624
L23305 45652
L23276 45680
L23248 45652
L23276 45624
L23276 45680
" />
<path d="M23867 45680
L23530 45680
" />
<path d="M23698 45680
L23698 45089
L23642 45174
L23586 45230
L23530 45258
" />
<path d="M24148 45680
L24261 45680
L24317 45652
L24345 45624
L24401 45539
L24429 45427
L24429 45202
L24401 45146
L24373 45118
L24317 45089
L24205 45089
L24148 45118
L24120 45146
L24092 45202
L24092 45343
L24120 45399
L24148 45427
L24205 45455
L24317 45455
L24373 45427
L24401 45399
L24429 45343
" />
<path d="M24795 45089
L24851 45089
L24908 45118
L24936 45146
L24964 45202
L24992 45314
L24992 45455
L24964 45568
L24936 45624
L24908 45652
L24851 45680
L24795 45680
L24739 45652
L24711 45624
L24683 45568
L24654 45455
L24654 45314
L24683 45202
L24711 45146
L24739 45118
L24795 45089
" />
<path d="M25695 45680
L25695 45286
" />
<path d="M25695 45343
L25723 45314
L25779 45286
L25864 45286
L25920 45314
L25948 45371
L25948 45680
" />
<path d="M25948 45371
L25976 45314
L26032 45286
L26117 45286
L26173 45314
L26201 45371
L26201 45680
" />
<path d="M26482 45680
L26482 45286
" />
<path d="M26482 45343
L26510 45314
L26567 45286
L26651 45286
L26707 45314
L26735 45371
L26735 45680
" />
<path d="M26735 45371
L26764 45314
L26820 45286
L26904 45286
L26960 45314
L26989 45371
L26989 45680
" />
<path d="M39 44910
L48539 44910
" />
<path d="M39 42910
L39 45972
" />
<path d="M48539 42910
L48539 45972
" />
<path d="M48539 44910
L48095 45140
" />
<path d="M48539 44910
L48095 44679
" />
<path d="M39 44910
L482 45140
" />
<path d="M39 44910
L482 44679
" />
</g>
<g style="fill:#FFFF00; fill-opacity:0.0; 
stroke:#FFFF00; stroke-width:78.7402; stroke-opacity:1; 
stroke-linecap:round; stroke-linejoin:round;">
<path d="M48539 43160
L48539 3660
" />
<path d="M39 43160
L2039 43160
" />
<path d="M39 3660
L39 43160
" />
<path d="M39 3660
L54039 3660
" />
<path d="M2039 43160
L61539 43160
" />
</g>
<g style="fill:#00A0A0; fill-opacity:0.0; 
stroke:#00A0A0; stroke-width:80; stroke-opacity:1; 
stroke-linecap:round; stroke-linejoin:round;">
<path d="M23001 17210
L22963 17181
L22925 17124
L22867 17038
L22829 17010
L22791 17010
" />
<path d="M22810 17152
L22772 17124
L22734 17067
L22715 16952
L22715 16752
L22734 16638
L22772 16581
L22810 16552
L22886 16552
L22925 16581
L22963 16638
L22982 16752
L22982 16952
L22963 17067
L22925 17124
L22886 17152
L22810 17152
" />
<path d="M23363 17152
L23134 17152
" />
<path d="M23248 17152
L23248 16552
L23210 16638
L23172 16695
L23134 16724
" />
<path d="M20782 16810
L20182 16810
L20610 16676
L20182 16543
L20782 16543
" />
<path d="M20182 16276
L20182 16200
L20210 16162
L20267 16124
L20382 16105
L20582 16105
L20696 16124
L20753 16162
L20782 16200
L20782 16276
L20753 16314
L20696 16352
L20582 16371
L20382 16371
L20267 16352
L20210 16314
L20182 16276
" />
<path d="M20753 15952
L20782 15895
L20782 15800
L20753 15762
L20725 15743
L20667 15724
L20610 15724
L20553 15743
L20525 15762
L20496 15800
L20467 15876
L20439 15914
L20410 15933
L20353 15952
L20296 15952
L20239 15933
L20210 15914
L20182 15876
L20182 15781
L20210 15724
" />
<path d="M20467 15419
L20467 15552
" />
<path d="M20782 15552
L20182 15552
L20182 15362
" />
<path d="M20467 15210
L20467 15076
" />
<path d="M20782 15019
L20782 15210
L20182 15210
L20182 15019
" />
<path d="M20182 14905
L20182 14676
" />
<path d="M20782 14790
L20182 14790
" />
<path d="M20839 14638
L20839 14333
" />
<path d="M20782 14238
L20182 14238
L20782 14010
L20182 14010
" />
</g>
<g style="fill:#00A0A0; fill-opacity:0.0; 
stroke:#00A0A0; stroke-width:60; stroke-opacity:1; 
stroke-linecap:round; stroke-linejoin:round;">
<path d="M37305 15037
L37305 14737
L37420 14737
L37448 14751
L37463 14766
L37477 14794
L37477 14837
L37463 14866
L37448 14880
L37420 14894
L37305 14894
" />
<path d="M37748 14737
L37605 14737
L37591 14880
L37605 14866
L37634 14851
L37705 14851
L37734 14866
L37748 14880
L37763 14908
L37763 14980
L37748 15008
L37734 15023
L37705 15037
L37634 15037
L37605 15023
L37591 15008
" />
<path d="M35719 13051
L35948 13051
" />
<path d="M35834 13451
L35834 13051
" />
<path d="M36081 13242
L36214 13242
" />
<path d="M36272 13451
L36081 13451
L36081 13051
L36272 13051
" />
<path d="M36424 13432
L36481 13451
L36576 13451
L36614 13432
L36634 13413
L36653 13375
L36653 13337
L36634 13299
L36614 13280
L36576 13261
L36500 13242
L36462 13223
L36443 13204
L36424 13166
L36424 13128
L36443 13090
L36462 13070
L36500 13051
L36595 13051
L36653 13070
" />
<path d="M36767 13051
L36995 13051
" />
<path d="M36881 13451
L36881 13051
" />
<path d="M37034 13490
L37338 13490
" />
<path d="M37434 13451
L37434 13051
L37586 13051
L37624 13070
L37643 13090
L37662 13128
L37662 13185
L37643 13223
L37624 13242
L37586 13261
L37434 13261
" />
<path d="M37910 13051
L37986 13051
L38024 13070
L38062 13109
L38081 13185
L38081 13318
L38062 13394
L38024 13432
L37986 13451
L37910 13451
L37872 13432
L37834 13394
L37814 13318
L37814 13185
L37834 13109
L37872 13070
L37910 13051
" />
<path d="M38253 13451
L38253 13051
" />
<path d="M38443 13451
L38443 13051
L38672 13451
L38672 13051
" />
<path d="M38805 13051
L39034 13051
" />
<path d="M38919 13451
L38919 13051
" />
<path d="M39148 13432
L39205 13451
L39300 13451
L39338 13432
L39357 13413
L39376 13375
L39376 13337
L39357 13299
L39338 13280
L39300 13261
L39224 13242
L39186 13223
L39167 13204
L39148 13166
L39148 13128
L39167 13090
L39186 13070
L39224 13051
L39319 13051
L39376 13070
" />
</g>
<g style="fill:#00A0A0; fill-opacity:0.0; 
stroke:#00A0A0; stroke-width:59.0551; stroke-opacity:1; 
stroke-linecap:round; stroke-linejoin:round;">
<path d="M8560 40450
L8167 40450
L8167 40300
L8185 40263
L8204 40244
L8242 40225
L8298 40225
L8335 40244
L8354 40263
L8373 40300
L8373 40450
" />
<path d="M8204 40075
L8185 40056
L8167 40019
L8167 39925
L8185 39888
L8204 39869
L8242 39850
L8279 39850
L8335 39869
L8560 40094
L8560 39850
" />
<path d="M8523 37057
L8542 37076
L8560 37132
L8560 37169
L8542 37225
L8504 37263
L8467 37282
L8392 37300
L8335 37300
L8260 37282
L8223 37263
L8185 37225
L8167 37169
L8167 37132
L8185 37076
L8204 37057
" />
<path d="M8167 36813
L8167 36738
L8185 36701
L8223 36663
L8298 36644
L8429 36644
L8504 36663
L8542 36701
L8560 36738
L8560 36813
L8542 36851
L8504 36888
L8429 36907
L8298 36907
L8223 36888
L8185 36851
L8167 36813
" />
<path d="M8560 36476
L8167 36476
L8560 36251
L8167 36251
" />
<path d="M8560 36063
L8167 36063
L8560 35838
L8167 35838
" />
<path d="M8598 35744
L8598 35444
" />
<path d="M8204 35369
L8185 35351
L8167 35313
L8167 35219
L8185 35182
L8204 35163
L8242 35145
L8279 35145
L8335 35163
L8560 35388
L8560 35145
" />
<path d="M8560 27450
L8167 27450
L8167 27300
L8185 27263
L8204 27244
L8242 27225
L8298 27225
L8335 27244
L8354 27263
L8373 27300
L8373 27450
" />
<path d="M8560 26850
L8560 27075
" />
<path d="M8560 26963
L8167 26963
L8223 27000
L8260 27038
L8279 27075
" />
<path d="M8523 24057
L8542 24076
L8560 24132
L8560 24169
L8542 24225
L8504 24263
L8467 24282
L8392 24300
L8335 24300
L8260 24282
L8223 24263
L8185 24225
L8167 24169
L8167 24132
L8185 24076
L8204 24057
" />
<path d="M8167 23813
L8167 23738
L8185 23701
L8223 23663
L8298 23644
L8429 23644
L8504 23663
L8542 23701
L8560 23738
L8560 23813
L8542 23851
L8504 23888
L8429 23907
L8298 23907
L8223 23888
L8185 23851
L8167 23813
" />
<path d="M8560 23476
L8167 23476
L8560 23251
L8167 23251
" />
<path d="M8560 23063
L8167 23063
L8560 22838
L8167 22838
" />
<path d="M8598 22744
L8598 22444
" />
<path d="M8204 22369
L8185 22351
L8167 22313
L8167 22219
L8185 22182
L8204 22163
L8242 22145
L8279 22145
L8335 22163
L8560 22388
L8560 22145
" />
<path d="M8060 18950
L7667 18950
L7667 18800
L7685 18763
L7704 18744
L7742 18725
L7798 18725
L7835 18744
L7854 18763
L7873 18800
L7873 18950
" />
<path d="M7667 18594
L7667 18350
L7817 18481
L7817 18425
L7835 18388
L7854 18369
L7892 18350
L7985 18350
L8023 18369
L8042 18388
L8060 18425
L8060 18538
L8042 18575
L8023 18594
" />
<path d="M7667 16204
L7667 15979
" />
<path d="M8060 16091
L7667 16091
" />
<path d="M7667 15772
L7667 15697
L7685 15660
L7723 15622
L7798 15604
L7929 15604
L8004 15622
L8042 15660
L8060 15697
L8060 15772
L8042 15810
L8004 15847
L7929 15866
L7798 15866
L7723 15847
L7685 15810
L7667 15772
" />
<path d="M8060 15210
L7873 15341
" />
<path d="M8060 15435
L7667 15435
L7667 15285
L7685 15247
L7704 15229
L7742 15210
L7798 15210
L7835 15229
L7854 15247
L7873 15285
L7873 15435
" />
<path d="M8023 14816
L8042 14835
L8060 14891
L8060 14929
L8042 14985
L8004 15022
L7967 15041
L7892 15060
L7835 15060
L7760 15041
L7723 15022
L7685 14985
L7667 14929
L7667 14891
L7685 14835
L7704 14816
" />
<path d="M8060 14648
L7667 14648
" />
<path d="M7854 14648
L7854 14423
" />
<path d="M8060 14423
L7667 14423
" />
<path d="M8098 14329
L8098 14029
" />
<path d="M7667 13860
L7667 13785
L7685 13748
L7723 13710
L7798 13691
L7929 13691
L8004 13710
L8042 13748
L8060 13785
L8060 13860
L8042 13898
L8004 13935
L7929 13954
L7798 13954
L7723 13935
L7685 13898
L7667 13860
" />
<path d="M8060 13523
L7667 13523
L8060 13298
L7667 13298
" />
<path d="M8060 8950
L7667 8950
L7667 8800
L7685 8763
L7704 8744
L7742 8725
L7798 8725
L7835 8744
L7854 8763
L7873 8800
L7873 8950
" />
<path d="M7798 8388
L8060 8388
" />
<path d="M7648 8481
L7929 8575
L7929 8331
" />
<path d="M7948 5763
L7948 5576
" />
<path d="M8060 5800
L7667 5669
L8060 5538
" />
<path d="M8060 5182
L7873 5313
" />
<path d="M8060 5407
L7667 5407
L7667 5257
L7685 5219
L7704 5201
L7742 5182
L7798 5182
L7835 5201
L7854 5219
L7873 5257
L7873 5407
" />
<path d="M8023 4788
L8042 4807
L8060 4863
L8060 4901
L8042 4957
L8004 4994
L7967 5013
L7892 5032
L7835 5032
L7760 5013
L7723 4994
L7685 4957
L7667 4901
L7667 4863
L7685 4807
L7704 4788
" />
<path d="M8098 4713
L8098 4413
" />
<path d="M7667 4244
L7667 4169
L7685 4132
L7723 4094
L7798 4076
L7929 4076
L8004 4094
L8042 4132
L8060 4169
L8060 4244
L8042 4282
L8004 4319
L7929 4338
L7798 4338
L7723 4319
L7685 4282
L7667 4244
" />
<path d="M8060 3907
L7667 3907
" />
<path d="M8060 3682
L7835 3851
" />
<path d="M7667 3682
L7892 3907
" />
<path d="M13908 25932
L13776 25932
" />
<path d="M13776 26138
L13776 25744
L13964 25744
" />
<path d="M14320 26138
L14095 26138
" />
<path d="M14208 26138
L14208 25744
L14170 25800
L14133 25838
L14095 25857
" />
<path d="M13523 28687
L13392 28687
" />
<path d="M13392 28894
L13392 28500
L13580 28500
" />
<path d="M13730 28500
L13730 28819
L13748 28856
L13767 28875
L13805 28894
L13880 28894
L13917 28875
L13936 28856
L13955 28819
L13955 28500
" />
<path d="M14123 28875
L14179 28894
L14273 28894
L14311 28875
L14329 28856
L14348 28819
L14348 28781
L14329 28744
L14311 28725
L14273 28706
L14198 28687
L14161 28669
L14142 28650
L14123 28612
L14123 28575
L14142 28537
L14161 28519
L14198 28500
L14292 28500
L14348 28519
" />
<path d="M14517 28687
L14648 28687
" />
<path d="M14704 28894
L14517 28894
L14517 28500
L14704 28500
" />
<path d="M40379 34225
L40192 34356
" />
<path d="M40379 34450
L39986 34450
L39986 34300
L40004 34263
L40023 34244
L40061 34225
L40117 34225
L40154 34244
L40173 34263
L40192 34300
L40192 34450
" />
<path d="M39986 34094
L39986 33831
L40379 34000
" />
<path d="M38411 34431
L38411 34656
" />
<path d="M38411 34544
L38017 34544
L38073 34581
L38111 34619
L38130 34656
" />
<path d="M38055 34281
L38036 34263
L38017 34225
L38017 34131
L38036 34094
L38055 34075
L38092 34056
L38130 34056
L38186 34075
L38411 34300
L38411 34056
" />
<path d="M38411 33888
L38017 33888
" />
<path d="M38411 33663
L38186 33831
" />
<path d="M38017 33663
L38242 33888
" />
<path d="M38973 23138
L38842 22950
" />
<path d="M38748 23138
L38748 22744
L38898 22744
L38936 22763
L38955 22782
L38973 22819
L38973 22875
L38955 22913
L38936 22932
L38898 22950
L38748 22950
" />
<path d="M39161 23138
L39236 23138
L39273 23119
L39292 23100
L39329 23044
L39348 22969
L39348 22819
L39329 22782
L39311 22763
L39273 22744
L39198 22744
L39161 22763
L39142 22782
L39123 22819
L39123 22913
L39142 22950
L39161 22969
L39198 22988
L39273 22988
L39311 22969
L39329 22950
L39348 22913
" />
<path d="M38955 25106
L38730 25106
" />
<path d="M38842 25106
L38842 24713
L38805 24769
L38767 24806
L38730 24825
" />
<path d="M39123 25106
L39123 24713
" />
<path d="M39348 25106
L39179 24881
" />
<path d="M39348 24713
L39123 24938
" />
<path d="M45379 34225
L45192 34356
" />
<path d="M45379 34450
L44986 34450
L44986 34300
L45004 34263
L45023 34244
L45061 34225
L45117 34225
L45154 34244
L45173 34263
L45192 34300
L45192 34450
" />
<path d="M45154 34000
L45136 34038
L45117 34056
L45079 34075
L45061 34075
L45023 34056
L45004 34038
L44986 34000
L44986 33925
L45004 33888
L45023 33869
L45061 33850
L45079 33850
L45117 33869
L45136 33888
L45154 33925
L45154 34000
L45173 34038
L45192 34056
L45229 34075
L45304 34075
L45342 34056
L45361 34038
L45379 34000
L45379 33925
L45361 33888
L45342 33869
L45304 33850
L45229 33850
L45192 33869
L45173 33888
L45154 33925
" />
<path d="M43411 34244
L43411 34469
" />
<path d="M43411 34356
L43017 34356
L43073 34394
L43111 34431
L43130 34469
" />
<path d="M43411 34075
L43017 34075
" />
<path d="M43411 33850
L43186 34019
" />
<path d="M43017 33850
L43242 34075
" />
<path d="M35379 34225
L35192 34356
" />
<path d="M35379 34450
L34986 34450
L34986 34300
L35004 34263
L35023 34244
L35061 34225
L35117 34225
L35154 34244
L35173 34263
L35192 34300
L35192 34450
" />
<path d="M34986 33888
L34986 33963
L35004 34000
L35023 34019
L35079 34056
L35154 34075
L35304 34075
L35342 34056
L35361 34038
L35379 34000
L35379 33925
L35361 33888
L35342 33869
L35304 33850
L35211 33850
L35173 33869
L35154 33888
L35136 33925
L35136 34000
L35154 34038
L35173 34056
L35211 34075
" />
<path d="M33055 34656
L33036 34638
L33017 34600
L33017 34506
L33036 34469
L33055 34450
L33092 34431
L33130 34431
L33186 34450
L33411 34675
L33411 34431
" />
<path d="M33055 34281
L33036 34263
L33017 34225
L33017 34131
L33036 34094
L33055 34075
L33092 34056
L33130 34056
L33186 34075
L33411 34300
L33411 34056
" />
<path d="M33411 33888
L33017 33888
" />
<path d="M33411 33663
L33186 33831
" />
<path d="M33017 33663
L33242 33888
" />
<path d="M30379 34225
L30192 34356
" />
<path d="M30379 34450
L29986 34450
L29986 34300
L30004 34263
L30023 34244
L30061 34225
L30117 34225
L30154 34244
L30173 34263
L30192 34300
L30192 34450
" />
<path d="M29986 33869
L29986 34056
L30173 34075
L30154 34056
L30136 34019
L30136 33925
L30154 33888
L30173 33869
L30211 33850
L30304 33850
L30342 33869
L30361 33888
L30379 33925
L30379 34019
L30361 34056
L30342 34075
" />
<path d="M28055 34656
L28036 34638
L28017 34600
L28017 34506
L28036 34469
L28055 34450
L28092 34431
L28130 34431
L28186 34450
L28411 34675
L28411 34431
" />
<path d="M28055 34281
L28036 34263
L28017 34225
L28017 34131
L28036 34094
L28055 34075
L28092 34056
L28130 34056
L28186 34075
L28411 34300
L28411 34056
" />
<path d="M28411 33888
L28017 33888
" />
<path d="M28411 33663
L28186 33831
" />
<path d="M28017 33663
L28242 33888
" />
<path d="M25379 34225
L25192 34356
" />
<path d="M25379 34450
L24986 34450
L24986 34300
L25004 34263
L25023 34244
L25061 34225
L25117 34225
L25154 34244
L25173 34263
L25192 34300
L25192 34450
" />
<path d="M25117 33888
L25379 33888
" />
<path d="M24967 33981
L25248 34075
L25248 33831
" />
<path d="M23055 34656
L23036 34638
L23017 34600
L23017 34506
L23036 34469
L23055 34450
L23092 34431
L23130 34431
L23186 34450
L23411 34675
L23411 34431
" />
<path d="M23055 34281
L23036 34263
L23017 34225
L23017 34131
L23036 34094
L23055 34075
L23092 34056
L23130 34056
L23186 34075
L23411 34300
L23411 34056
" />
<path d="M23411 33888
L23017 33888
" />
<path d="M23411 33663
L23186 33831
" />
<path d="M23017 33663
L23242 33888
" />
</g>
<g style="fill:#00A0A0; fill-opacity:0.0; 
stroke:#00A0A0; stroke-width:80; stroke-opacity:1; 
stroke-linecap:round; stroke-linejoin:round;">
<path d="M10217 7882
L10051 7620
" />
<path d="M9932 7882
L9932 7332
L10122 7332
L10170 7358
L10194 7385
L10217 7437
L10217 7515
L10194 7568
L10170 7594
L10122 7620
L9932 7620
" />
<path d="M10694 7882
L10408 7882
" />
<path d="M10551 7882
L10551 7332
L10503 7411
L10456 7463
L10408 7489
" />
<path d="M10884 7385
L10908 7358
L10956 7332
L11075 7332
L11122 7358
L11146 7385
L11170 7437
L11170 7489
L11146 7568
L10860 7882
L11170 7882
" />
<path d="M29456 15382
L29289 15120
" />
<path d="M29170 15382
L29170 14832
L29360 14832
L29408 14858
L29432 14885
L29456 14937
L29456 15015
L29432 15068
L29408 15094
L29360 15120
L29170 15120
" />
<path d="M29932 15382
L29646 15382
" />
<path d="M29789 15382
L29789 14832
L29741 14911
L29694 14963
L29646 14989
" />
<path d="M29456 14382
L29289 14120
" />
<path d="M29170 14382
L29170 13832
L29360 13832
L29408 13858
L29432 13885
L29456 13937
L29456 14015
L29432 14068
L29408 14094
L29360 14120
L29170 14120
" />
<path d="M29646 13885
L29670 13858
L29717 13832
L29836 13832
L29884 13858
L29908 13885
L29932 13937
L29932 13989
L29908 14068
L29622 14382
L29932 14382
" />
<path d="M22956 13382
L22789 13120
" />
<path d="M22670 13382
L22670 12832
L22860 12832
L22908 12858
L22932 12885
L22956 12937
L22956 13015
L22932 13068
L22908 13094
L22860 13120
L22670 13120
" />
<path d="M23122 12832
L23432 12832
L23265 13042
L23336 13042
L23384 13068
L23408 13094
L23432 13146
L23432 13277
L23408 13330
L23384 13356
L23336 13382
L23194 13382
L23146 13356
L23122 13330
" />
<path d="M39217 16882
L39051 16620
" />
<path d="M38932 16882
L38932 16332
L39122 16332
L39170 16358
L39194 16385
L39217 16437
L39217 16515
L39194 16568
L39170 16594
L39122 16620
L38932 16620
" />
<path d="M39694 16882
L39408 16882
" />
<path d="M39551 16882
L39551 16332
L39503 16411
L39456 16463
L39408 16489
" />
<path d="M40170 16882
L39884 16882
" />
<path d="M40027 16882
L40027 16332
L39979 16411
L39932 16463
L39884 16489
" />
<path d="M44761 20981
L44500 21148
" />
<path d="M44761 21267
L44211 21267
L44211 21076
L44238 21029
L44264 21005
L44316 20981
L44395 20981
L44447 21005
L44473 21029
L44500 21076
L44500 21267
" />
<path d="M44761 20505
L44761 20790
" />
<path d="M44761 20648
L44211 20648
L44290 20695
L44342 20743
L44369 20790
" />
<path d="M44211 20195
L44211 20148
L44238 20100
L44264 20076
L44316 20052
L44421 20029
L44552 20029
L44657 20052
L44709 20076
L44735 20100
L44761 20148
L44761 20195
L44735 20243
L44709 20267
L44657 20290
L44552 20314
L44421 20314
L44316 20290
L44264 20267
L44238 20243
L44211 20195
" />
</g>
<g style="fill:#00A0A0; fill-opacity:0.0; 
stroke:#00A0A0; stroke-width:35; stroke-opacity:1; 
stroke-linecap:round; stroke-linejoin:round;">
<path d="M25117 14381
L25117 14081
L25189 14081
L25232 14095
L25260 14124
L25275 14152
L25289 14210
L25289 14252
L25275 14310
L25260 14338
L25232 14367
L25189 14381
L25117 14381
" />
<path d="M25575 14381
L25403 14381
" />
<path d="M25489 14381
L25489 14081
L25460 14124
L25432 14152
L25403 14167
" />
<path d="M25846 12281
L25703 12281
L25703 11981
" />
<path d="M25946 12124
L26046 12124
" />
<path d="M26089 12281
L25946 12281
L25946 11981
L26089 11981
" />
<path d="M26217 12281
L26217 11981
L26289 11981
L26332 11995
L26360 12024
L26375 12052
L26389 12110
L26389 12152
L26375 12210
L26360 12238
L26332 12267
L26289 12281
L26217 12281
" />
<path d="M14517 6681
L14517 6381
L14589 6381
L14632 6395
L14660 6424
L14675 6452
L14689 6510
L14689 6552
L14675 6610
L14660 6638
L14632 6667
L14589 6681
L14517 6681
" />
<path d="M14946 6381
L14889 6381
L14860 6395
L14846 6410
L14817 6452
L14803 6510
L14803 6624
L14817 6652
L14832 6667
L14860 6681
L14917 6681
L14946 6667
L14960 6652
L14975 6624
L14975 6552
L14960 6524
L14946 6510
L14917 6495
L14860 6495
L14832 6510
L14817 6524
L14803 6552
" />
<path d="M13846 8781
L13703 8781
L13703 8481
" />
<path d="M13946 8624
L14046 8624
" />
<path d="M14089 8781
L13946 8781
L13946 8481
L14089 8481
" />
<path d="M14217 8781
L14217 8481
L14289 8481
L14332 8495
L14360 8524
L14375 8552
L14389 8610
L14389 8652
L14375 8710
L14360 8738
L14332 8767
L14289 8781
L14217 8781
" />
</g>
<g style="fill:#00A0A0; fill-opacity:0.0; 
stroke:#00A0A0; stroke-width:120; stroke-opacity:1; 
stroke-linecap:round; stroke-linejoin:round;">
<path d="M37339 5302
L37339 5731
L37310 5817
L37253 5874
L37167 5902
L37110 5902
" />
<path d="M37939 5902
L37596 5902
" />
<path d="M37767 5902
L37767 5302
L37710 5388
L37653 5445
L37596 5474
" />
<path d="M36796 8402
L36796 7802
L36939 7802
L37025 7831
L37082 7888
L37110 7945
L37139 8060
L37139 8145
L37110 8260
L37082 8317
L37025 8374
L36939 8402
L36796 8402
" />
<path d="M37596 8088
L37682 8117
L37710 8145
L37739 8202
L37739 8288
L37710 8345
L37682 8374
L37625 8402
L37396 8402
L37396 7802
L37596 7802
L37653 7831
L37682 7860
L37710 7917
L37710 7974
L37682 8031
L37653 8060
L37596 8088
L37396 8088
" />
<path d="M38025 8402
L38139 8402
L38196 8374
L38225 8345
L38282 8260
L38310 8145
L38310 7917
L38282 7860
L38253 7831
L38196 7802
L38082 7802
L38025 7831
L37996 7860
L37967 7917
L37967 8060
L37996 8117
L38025 8145
L38082 8174
L38196 8174
L38253 8145
L38282 8117
L38310 8060
" />
</g>
<g style="fill:#00A0A0; fill-opacity:0.0; 
stroke:#00A0A0; stroke-width:100; stroke-opacity:1; 
stroke-linecap:round; stroke-linejoin:round;">
<path d="M37494 19902
L37494 19302
L37589 19302
L37646 19331
L37684 19388
L37703 19445
L37722 19560
L37722 19645
L37703 19760
L37684 19817
L37646 19874
L37589 19902
L37494 19902
" />
<path d="M38084 19302
L37894 19302
L37875 19588
L37894 19560
L37932 19531
L38027 19531
L38065 19560
L38084 19588
L38103 19645
L38103 19788
L38084 19845
L38065 19874
L38027 19902
L37932 19902
L37894 19874
L37875 19845
" />
</g>
<g style="fill:#00A0A0; fill-opacity:0.0; 
stroke:#00A0A0; stroke-width:120; stroke-opacity:1; 
stroke-linecap:round; stroke-linejoin:round;">
</g>
<g style="fill:#00A0A0; fill-opacity:0.0; 
stroke:#00A0A0; stroke-width:100; stroke-opacity:1; 
stroke-linecap:round; stroke-linejoin:round;">
<path d="M36884 18302
L37151 18302
L36884 18902
L37151 18902
" />
<path d="M37303 18588
L37436 18588
" />
<path d="M37494 18902
L37303 18902
L37303 18302
L37494 18302
" />
<path d="M37665 18902
L37665 18302
L37894 18902
L37894 18302
" />
<path d="M38084 18588
L38217 18588
" />
<path d="M38275 18902
L38084 18902
L38084 18302
L38275 18302
" />
<path d="M38675 18902
L38541 18617
" />
<path d="M38446 18902
L38446 18302
L38598 18302
L38636 18331
L38656 18360
L38675 18417
L38675 18502
L38656 18560
L38636 18588
L38598 18617
L38446 18617
" />
</g>
<g style="fill:#00A0A0; fill-opacity:0.0; 
stroke:#00A0A0; stroke-width:120; stroke-opacity:1; 
stroke-linecap:round; stroke-linejoin:round;">
</g>
<g style="fill:#00A0A0; fill-opacity:0.0; 
stroke:#00A0A0; stroke-width:100; stroke-opacity:1; 
stroke-linecap:round; stroke-linejoin:round;">
<path d="M18782 30205
L18182 30205
L18182 30110
L18210 30052
L18267 30014
L18325 29995
L18439 29976
L18525 29976
L18639 29995
L18696 30014
L18753 30052
L18782 30110
L18782 30205
" />
<path d="M18382 29633
L18782 29633
" />
<path d="M18153 29729
L18582 29824
L18582 29576
" />
</g>
<g style="fill:#00A0A0; fill-opacity:0.0; 
stroke:#00A0A0; stroke-width:120; stroke-opacity:1; 
stroke-linecap:round; stroke-linejoin:round;">
</g>
<g style="fill:#00A0A0; fill-opacity:0.0; 
stroke:#00A0A0; stroke-width:100; stroke-opacity:1; 
stroke-linecap:round; stroke-linejoin:round;">
<path d="M19182 30386
L19182 30157
" />
<path d="M19782 30271
L19182 30271
" />
<path d="M19182 30081
L19782 29948
L19182 29814
" />
<path d="M19753 29700
L19782 29643
L19782 29548
L19753 29510
L19725 29490
L19667 29471
L19610 29471
L19553 29490
L19525 29510
L19496 29548
L19467 29624
L19439 29662
L19410 29681
L19353 29700
L19296 29700
L19239 29681
L19210 29662
L19182 29624
L19182 29529
L19210 29471
" />
</g>
<g style="fill:#00A0A0; fill-opacity:0.0; 
stroke:#00A0A0; stroke-width:120; stroke-opacity:1; 
stroke-linecap:round; stroke-linejoin:round;">
</g>
<g style="fill:#00A0A0; fill-opacity:0.0; 
stroke:#00A0A0; stroke-width:80; stroke-opacity:1; 
stroke-linecap:round; stroke-linejoin:round;">
<path d="M13244 13362
L13244 12862
L13339 12862
L13396 12886
L13434 12933
L13453 12981
L13472 13076
L13472 13148
L13453 13243
L13434 13290
L13396 13338
L13339 13362
L13244 13362
" />
<path d="M13625 12910
L13644 12886
L13682 12862
L13777 12862
L13815 12886
L13834 12910
L13853 12957
L13853 13005
L13834 13076
L13606 13362
L13853 13362
" />
</g>
<g style="fill:#00A0A0; fill-opacity:0.0; 
stroke:#00A0A0; stroke-width:100; stroke-opacity:1; 
stroke-linecap:round; stroke-linejoin:round;">
<path d="M33956 14814
L33932 14838
L33860 14862
L33813 14862
L33741 14838
L33694 14790
L33670 14743
L33646 14648
L33646 14576
L33670 14481
L33694 14433
L33741 14386
L33813 14362
L33860 14362
L33932 14386
L33956 14410
" />
<path d="M34432 14862
L34146 14862
" />
<path d="M34289 14862
L34289 14362
L34241 14433
L34194 14481
L34146 14505
" />
<path d="M33503 16862
L33217 16862
" />
<path d="M33360 16862
L33360 16362
L33313 16433
L33265 16481
L33217 16505
" />
<path d="M33813 16362
L33860 16362
L33908 16386
L33932 16410
L33956 16457
L33979 16552
L33979 16671
L33956 16767
L33932 16814
L33908 16838
L33860 16862
L33813 16862
L33765 16838
L33741 16814
L33717 16767
L33694 16671
L33694 16552
L33717 16457
L33741 16410
L33765 16386
L33813 16362
" />
<path d="M34408 16529
L34408 16862
" />
<path d="M34194 16529
L34194 16790
L34217 16838
L34265 16862
L34336 16862
L34384 16838
L34408 16814
" />
<path d="M34813 16600
L34646 16600
" />
<path d="M34646 16862
L34646 16362
L34884 16362
" />
</g>
<g style="fill:#00A0A0; fill-opacity:0.0; 
stroke:#00A0A0; stroke-width:59.0551; stroke-opacity:1; 
stroke-linecap:round; stroke-linejoin:round;">
<path d="M9748 31319
L9748 30925
L9842 30925
L9898 30944
L9936 30981
L9955 31019
L9973 31094
L9973 31150
L9955 31225
L9936 31263
L9898 31300
L9842 31319
L9748 31319
" />
<path d="M10104 30925
L10348 30925
L10217 31075
L10273 31075
L10311 31094
L10329 31113
L10348 31150
L10348 31244
L10329 31281
L10311 31300
L10273 31319
L10161 31319
L10123 31300
L10104 31281
" />
<path d="M7205 31113
L7261 31131
L7280 31150
L7298 31188
L7298 31244
L7280 31281
L7261 31300
L7223 31319
L7073 31319
L7073 30925
L7205 30925
L7242 30944
L7261 30963
L7280 31000
L7280 31038
L7261 31075
L7242 31094
L7205 31113
L7073 31113
" />
<path d="M7692 31319
L7561 31131
" />
<path d="M7467 31319
L7467 30925
L7617 30925
L7655 30944
L7673 30963
L7692 31000
L7692 31056
L7673 31094
L7655 31113
L7617 31131
L7467 31131
" />
<path d="M7861 31319
L7861 30925
" />
<path d="M8048 31319
L8048 30925
L8142 30925
L8198 30944
L8236 30981
L8254 31019
L8273 31094
L8273 31150
L8254 31225
L8236 31263
L8198 31300
L8142 31319
L8048 31319
" />
<path d="M8648 30944
L8611 30925
L8554 30925
L8498 30944
L8461 30981
L8442 31019
L8423 31094
L8423 31150
L8442 31225
L8461 31263
L8498 31300
L8554 31319
L8592 31319
L8648 31300
L8667 31281
L8667 31150
L8592 31150
" />
<path d="M8836 31113
L8967 31113
" />
<path d="M9023 31319
L8836 31319
L8836 30925
L9023 30925
" />
<path d="M13214 18356
L13176 18338
L13139 18300
L13083 18244
L13045 18225
L13008 18225
" />
<path d="M13026 18319
L12989 18300
L12952 18263
L12933 18188
L12933 18056
L12952 17981
L12989 17944
L13026 17925
L13101 17925
L13139 17944
L13176 17981
L13195 18056
L13195 18188
L13176 18263
L13139 18300
L13101 18319
L13026 18319
" />
<path d="M13345 17963
L13364 17944
L13401 17925
L13495 17925
L13533 17944
L13551 17963
L13570 18000
L13570 18038
L13551 18094
L13326 18319
L13570 18319
" />
<path d="M8368 19894
L8236 19706
" />
<path d="M8143 19894
L8143 19500
L8293 19500
L8330 19519
L8349 19537
L8368 19575
L8368 19631
L8349 19669
L8330 19687
L8293 19706
L8143 19706
" />
<path d="M8536 19687
L8668 19687
" />
<path d="M8724 19894
L8536 19894
L8536 19500
L8724 19500
" />
<path d="M9080 19894
L8893 19894
L8893 19500
" />
<path d="M9193 19781
L9380 19781
" />
<path d="M9155 19894
L9286 19500
L9418 19894
" />
<path d="M9624 19706
L9624 19894
" />
<path d="M9493 19500
L9624 19706
L9755 19500
" />
</g>
<g style="fill:#00A0A0; fill-opacity:0.0; 
stroke:#00A0A0; stroke-width:150; stroke-opacity:1; 
stroke-linecap:round; stroke-linejoin:round;">
<path d="M21039 14910
L21039 14660
" />
<path d="M21039 14660
L25039 14660
" />
<path d="M25039 14660
L25039 14910
" />
<path d="M21039 16410
L21039 14910
" />
<path d="M21039 14910
L25039 14910
" />
<path d="M25039 14910
L25039 16410
" />
<path d="M25039 16410
L21039 16410
" />
</g>
<g style="fill:#00A0A0; fill-opacity:0.0; 
stroke:#00A0A0; stroke-width:50; stroke-opacity:1; 
stroke-linecap:round; stroke-linejoin:round;">
<path d="M37039 13760
L38039 13760
" />
<path d="M37039 14560
L38039 14560
" />
<path d="M37039.4 13760 A400 400 0.0 0 0 36639.4 14160 " />
<path d="M36639.4 14160 A400 400 0.0 0 0 37039.4 14560 " />
<path d="M38439.4 14160 A400 400 0.0 0 0 38039.4 13760 " />
<path d="M38039.4 14560 A400 400 0.0 0 0 38439.4 14160 " />
</g>
<g style="fill:#00A0A0; fill-opacity:0.0; 
stroke:#00A0A0; stroke-width:59.0551; stroke-opacity:1; 
stroke-linecap:round; stroke-linejoin:round;">
<path d="M6433 40553
L4070 40553
" />
<path d="M4070 40553
L4070 41734
" />
<path d="M4070 41734
L6433 41734
" />
<path d="M6433 41734
L6433 40553
" />
<path d="M6433 38585
L4070 38585
" />
<path d="M4070 38585
L4070 39766
" />
<path d="M4070 39766
L6433 39766
" />
<path d="M6433 39766
L6433 38585
" />
<path d="M7614 40160
L7614 42128
" />
<path d="M7614 42128
L4464 42128
" />
<path d="M4464 42128
L4464 38191
" />
<path d="M4464 38191
L7614 38191
" />
<path d="M7614 38191
L7614 40160
" />
<path d="M6433 27553
L4070 27553
" />
<path d="M4070 27553
L4070 28734
" />
<path d="M4070 28734
L6433 28734
" />
<path d="M6433 28734
L6433 27553
" />
<path d="M6433 25585
L4070 25585
" />
<path d="M4070 25585
L4070 26766
" />
<path d="M4070 26766
L6433 26766
" />
<path d="M6433 26766
L6433 25585
" />
<path d="M7614 27160
L7614 29128
" />
<path d="M7614 29128
L4464 29128
" />
<path d="M4464 29128
L4464 25191
" />
<path d="M4464 25191
L7614 25191
" />
<path d="M7614 25191
L7614 27160
" />
<path d="M5933 19053
L3570 19053
" />
<path d="M3570 19053
L3570 20234
" />
<path d="M3570 20234
L5933 20234
" />
<path d="M5933 20234
L5933 19053
" />
<path d="M5933 17085
L3570 17085
" />
<path d="M3570 17085
L3570 18266
" />
<path d="M3570 18266
L5933 18266
" />
<path d="M5933 18266
L5933 17085
" />
<path d="M7114 18660
L7114 20628
" />
<path d="M7114 20628
L3964 20628
" />
<path d="M3964 20628
L3964 16691
" />
<path d="M3964 16691
L7114 16691
" />
<path d="M7114 16691
L7114 18660
" />
<path d="M5933 9053
L3570 9053
" />
<path d="M3570 9053
L3570 10234
" />
<path d="M3570 10234
L5933 10234
" />
<path d="M5933 10234
L5933 9053
" />
<path d="M5933 7085
L3570 7085
" />
<path d="M3570 7085
L3570 8266
" />
<path d="M3570 8266
L5933 8266
" />
<path d="M5933 8266
L5933 7085
" />
<path d="M7114 8660
L7114 10628
" />
<path d="M7114 10628
L3964 10628
" />
<path d="M3964 10628
L3964 6691
" />
<path d="M3964 6691
L7114 6691
" />
<path d="M7114 6691
L7114 8660
" />
<circle cx="14039.4" cy="27160" r="2362.2" /> 
<path d="M41007 34160
L41007 29435
" />
<path d="M41007 29435
L37070 29435
" />
<path d="M37070 29435
L37070 34160
" />
<path d="M37070 34160
L37070 38490
" />
<path d="M37070 38490
L41007 38490
" />
<path d="M41007 38490
L41007 34160
" />
<path d="M39039 22191
L34314 22191
" />
<path d="M34314 22191
L34314 26128
" />
<path d="M34314 26128
L39039 26128
" />
<path d="M39039 26128
L43370 26128
" />
<path d="M43370 26128
L43370 22191
" />
<path d="M43370 22191
L39039 22191
" />
<path d="M46007 34160
L46007 29435
" />
<path d="M46007 29435
L42070 29435
" />
<path d="M42070 29435
L42070 34160
" />
<path d="M42070 34160
L42070 38490
" />
<path d="M42070 38490
L46007 38490
" />
<path d="M46007 38490
L46007 34160
" />
<path d="M36007 34160
L36007 29435
" />
<path d="M36007 29435
L32070 29435
" />
<path d="M32070 29435
L32070 34160
" />
<path d="M32070 34160
L32070 38490
" />
<path d="M32070 38490
L36007 38490
" />
<path d="M36007 38490
L36007 34160
" />
<path d="M31007 34160
L31007 29435
" />
<path d="M31007 29435
L27070 29435
" />
<path d="M27070 29435
L27070 34160
" />
<path d="M27070 34160
L27070 38490
" />
<path d="M27070 38490
L31007 38490
" />
<path d="M31007 38490
L31007 34160
" />
<path d="M26007 34160
L26007 29435
" />
<path d="M26007 29435
L22070 29435
" />
<path d="M22070 29435
L22070 34160
" />
<path d="M22070 34160
L22070 38490
" />
<path d="M22070 38490
L26007 38490
" />
<path d="M26007 38490
L26007 34160
" />
</g>
<g style="fill:#00A0A0; fill-opacity:0.0; 
stroke:#00A0A0; stroke-width:120; stroke-opacity:1; 
stroke-linecap:round; stroke-linejoin:round;">
<path d="M12039 7660
L11839 7660
" />
<path d="M9039 7660
L9239 7660
" />
<path d="M9239 7660
L9239 8060
" />
<path d="M9239 8060
L11839 8060
" />
<path d="M11839 8060
L11839 7260
" />
<path d="M11839 7260
L9239 7260
" />
<path d="M9239 7260
L9239 7660
" />
<path d="M11839 7860
L11639 8060
" />
<path d="M28039 15160
L28239 15160
" />
<path d="M31039 15160
L30839 15160
" />
<path d="M30839 15160
L30839 14760
" />
<path d="M30839 14760
L28239 14760
" />
<path d="M28239 14760
L28239 15560
" />
<path d="M28239 15560
L30839 15560
" />
<path d="M30839 15560
L30839 15160
" />
<path d="M28239 14960
L28439 14760
" />
<path d="M31039 14160
L30839 14160
" />
<path d="M28039 14160
L28239 14160
" />
<path d="M28239 14160
L28239 14560
" />
<path d="M28239 14560
L30839 14560
" />
<path d="M30839 14560
L30839 13760
" />
<path d="M30839 13760
L28239 13760
" />
<path d="M28239 13760
L28239 14160
" />
<path d="M30839 14360
L30639 14560
" />
<path d="M21539 13160
L21739 13160
" />
<path d="M24539 13160
L24339 13160
" />
<path d="M24339 13160
L24339 12760
" />
<path d="M24339 12760
L21739 12760
" />
<path d="M21739 12760
L21739 13560
" />
<path d="M21739 13560
L24339 13560
" />
<path d="M24339 13560
L24339 13160
" />
<path d="M21739 12960
L21939 12760
" />
<path d="M41039 16660
L40839 16660
" />
<path d="M38039 16660
L38239 16660
" />
<path d="M38239 16660
L38239 17060
" />
<path d="M38239 17060
L40839 17060
" />
<path d="M40839 17060
L40839 16260
" />
<path d="M40839 16260
L38239 16260
" />
<path d="M38239 16260
L38239 16660
" />
<path d="M40839 16860
L40639 17060
" />
<path d="M44539 22160
L44539 21960
" />
<path d="M44539 19160
L44539 19360
" />
<path d="M44539 19360
L44139 19360
" />
<path d="M44139 19360
L44139 21960
" />
<path d="M44139 21960
L44939 21960
" />
<path d="M44939 21960
L44939 19360
" />
<path d="M44939 19360
L44539 19360
" />
<path d="M44339 21960
L44139 21760
" />
</g>
<g style="fill:#00A0A0; fill-opacity:0.0; 
stroke:#00A0A0; stroke-width:100; stroke-opacity:1; 
stroke-linecap:round; stroke-linejoin:round;">
<path d="M25319 12660
L25319 13660
" />
</g>
<g style="fill:#00A0A0; fill-opacity:0.0; 
stroke:#00A0A0; stroke-width:60; stroke-opacity:1; 
stroke-linecap:round; stroke-linejoin:round;">
<path d="M26400.3 13544.1 A600 600 0.0 0 0 26539.4 13160 " />
<path d="M26538.6 13160 A599.256 599.256 0.0 0 0 26387.5 12762.1 " />
<path d="M25340.1 13160 A599.27 599.27 0.0 0 0 25484.4 13550 " />
<path d="M25478.4 12775.9 A600 600 0.0 0 0 25339.4 13160 " />
<path d="M25451.5 13509.3 A600 600 0.0 0 0 25939.4 13760 " />
<path d="M25939.4 13760 A600 600 0.0 0 0 26419.2 13520.3 " />
<path d="M25939.4 12560.7 A599.294 599.294 0.0 0 0 25466.5 12791.9 " />
<path d="M26412.8 12791.4 A600 600 0.0 0 0 25939.4 12560 " />
<path d="M25939.4 13410 A250 250 0.0 0 0 26189.4 13160 " />
<path d="M25939.4 13560 A400 400 0.0 0 0 26339.4 13160 " />
<path d="M25939.4 12910 A250 250 0.0 0 0 25689.4 13160 " />
<path d="M25939.4 12760 A400 400 0.0 0 0 25539.4 13160 " />
</g>
<g style="fill:#00A0A0; fill-opacity:0.0; 
stroke:#00A0A0; stroke-width:100; stroke-opacity:1; 
stroke-linecap:round; stroke-linejoin:round;">
<path d="M25325.6 13673.2 A800 800 0.0 0 0 25939.4 13960 " />
<path d="M25939.4 13959 A799 799 0.0 0 0 26644.2 13536.3 " />
<path d="M25938 12361 A798.972 798.972 0.0 0 0 25329.1 12644.3 " />
<path d="M26633.6 12762.4 A800 800 0.0 0 0 25939.4 12360 " />
<path d="M26643.8 13539.3 A800 800 0.0 0 0 26739.4 13160 " />
<path d="M26738.9 13160 A799.576 799.576 0.0 0 0 26620.4 12741 " />
<path d="M14759 8160
L14759 7160
" />
</g>
<g style="fill:#00A0A0; fill-opacity:0.0; 
stroke:#00A0A0; stroke-width:60; stroke-opacity:1; 
stroke-linecap:round; stroke-linejoin:round;">
<path d="M13678.4 7275.93 A600 600 0.0 0 0 13539.4 7660 " />
<path d="M13540.1 7660 A599.256 599.256 0.0 0 0 13691.2 8057.86 " />
<path d="M14738.6 7660 A599.27 599.27 0.0 0 0 14594.4 7270.01 " />
<path d="M14600.3 8044.07 A600 600 0.0 0 0 14739.4 7660 " />
<path d="M14627.2 7310.73 A600 600 0.0 0 0 14139.4 7060 " />
<path d="M14139.4 7060 A600 600 0.0 0 0 13659.6 7299.75 " />
<path d="M14139.4 8259.29 A599.294 599.294 0.0 0 0 14612.3 8028.14 " />
<path d="M13665.9 8028.57 A600 600 0.0 0 0 14139.4 8260 " />
<path d="M14139.4 7410 A250 250 0.0 0 0 13889.4 7660 " />
<path d="M14139.4 7260 A400 400 0.0 0 0 13739.4 7660 " />
<path d="M14139.4 7910 A250 250 0.0 0 0 14389.4 7660 " />
<path d="M14139.4 8060 A400 400 0.0 0 0 14539.4 7660 " />
</g>
<g style="fill:#00A0A0; fill-opacity:0.0; 
stroke:#00A0A0; stroke-width:100; stroke-opacity:1; 
stroke-linecap:round; stroke-linejoin:round;">
<path d="M14753.1 7146.84 A800 800 0.0 0 0 14139.4 6860 " />
<path d="M14139.4 6861 A799 799 0.0 0 0 13434.6 7283.66 " />
<path d="M14140.8 8458.97 A798.972 798.972 0.0 0 0 14749.6 8175.7 " />
<path d="M13445.2 8057.58 A800 800 0.0 0 0 14139.4 8460 " />
<path d="M13435 7280.73 A800 800 0.0 0 0 13339.4 7660 " />
<path d="M13339.8 7660 A799.576 799.576 0.0 0 0 13458.4 8078.97 " />
</g>
<g style="fill:#00A0A0; fill-opacity:0.0; 
stroke:#00A0A0; stroke-width:120; stroke-opacity:1; 
stroke-linecap:round; stroke-linejoin:round;">
<path d="M30689 10560
L43489 10560
" />
<path d="M43489 10560
L43489 3560
" />
<path d="M43489 3560
L30689 3560
" />
<path d="M30689 3560
L30689 10560
" />
<path d="M33489 3560
L33489 6560
" />
<path d="M33489 6560
L40689 6560
" />
<path d="M40689 6560
L40689 3560
" />
<path d="M34089 3560
L34089 160
" />
<path d="M34089 160
L40089 160
" />
<path d="M40089 160
L40089 3560
" />
<path d="M35789 17910
L35789 20410
" />
<path d="M35789 20410
L40289 20410
" />
<path d="M40289 20410
L40289 17910
" />
<path d="M40289 17910
L35789 17910
" />
<path d="M40039 17910
L40039 20410
" />
<path d="M39789 20410
L39789 17910
" />
<path d="M40289 19160
L41039 19160
" />
<path d="M35789 19160
L35039 19160
" />
<path d="M20289 27910
L17789 27910
" />
<path d="M17789 27910
L17789 32410
" />
<path d="M17789 32410
L20289 32410
" />
<path d="M20289 32410
L20289 27910
" />
<path d="M20289 32160
L17789 32160
" />
<path d="M17789 31910
L20289 31910
" />
<path d="M19039 32410
L19039 33160
" />
<path d="M19039 27910
L19039 27160
" />
<path d="M15039 13660
L12039 13660
" />
<path d="M12039 13660
L12039 12660
" />
<path d="M12039 12660
L15039 12660
" />
<path d="M15039 12660
L15039 13660
" />
<path d="M12289 13660
L12289 12660
" />
<path d="M12539 12660
L12539 13660
" />
<path d="M15039 13160
L15539 13160
" />
<path d="M12039 13160
L11539 13160
" />
<circle cx="34039.4" cy="15660" r="2195.45" /> 
</g>
<g style="fill:#00A0A0; fill-opacity:0.0; 
stroke:#00A0A0; stroke-width:59.0551; stroke-opacity:1; 
stroke-linecap:round; stroke-linejoin:round;">
<path d="M6102 31978
L6102 34341
" />
<path d="M5314 32372
L5708 31978
" />
<path d="M5314 33160
L5314 31978
" />
<path d="M5314 31978
L12795 31978
" />
<path d="M12795 31978
L12795 34341
" />
<path d="M12795 34341
L5314 34341
" />
<path d="M5314 34341
L5314 33160
" />
<path d="M10102 15797
L10102 15010
" />
<path d="M10102 15010
L17582 15010
" />
<path d="M17582 15010
L17582 15797
" />
<path d="M10102 20522
L10102 21309
" />
<path d="M10102 21309
L17582 21309
" />
<path d="M17582 21309
L17582 20522
" />
<path d="M10102 20522
L10102 15797
" />
<path d="M17582 15797
L17582 20522
" />
</g>
<g style="fill:#808000; fill-opacity:0.0; 
stroke:#808000; stroke-width:39.3701; stroke-opacity:1; 
stroke-linecap:round; stroke-linejoin:round;">
</g>
<g style="fill:#808000; fill-opacity:1.0; 
stroke:#808000; stroke-width:39.3701; stroke-opacity:1; 
stroke-linecap:round; stroke-linejoin:round;">
<circle cx="22039.4" cy="15660" r="330.315" /> 
<circle cx="23039.4" cy="15660" r="330.315" /> 
<polyline style="fill-rule:evenodd;"
points="24369,15990
23709,15990
23709,15329
24369,15329
24369,15990
" /> 
<circle cx="38039.4" cy="14160" r="255.315" /> 
<circle cx="37039.4" cy="14160" r="255.315" /> 
<circle cx="5645.67" cy="39175.7" r="472.441" /> 
<circle cx="5645.67" cy="41144.3" r="472.441" /> 
<circle cx="5645.67" cy="26175.7" r="472.441" /> 
<circle cx="5645.67" cy="28144.3" r="472.441" /> 
<circle cx="5145.67" cy="17675.7" r="472.441" /> 
<circle cx="5145.67" cy="19644.3" r="472.441" /> 
<circle cx="5145.67" cy="7675.75" r="472.441" /> 
<circle cx="5145.67" cy="9644.25" r="472.441" /> 
<circle cx="12464.6" cy="27160" r="472.441" /> 
<circle cx="15614.2" cy="27160" r="472.441" /> 
<circle cx="39039.4" cy="28254.5" r="472.441" /> 
<circle cx="39039.4" cy="39671.8" r="472.441" /> 
<circle cx="33133.9" cy="24160" r="472.441" /> 
<circle cx="44551.2" cy="24160" r="472.441" /> 
<circle cx="44039.4" cy="28254.5" r="472.441" /> 
<circle cx="44039.4" cy="39671.8" r="472.441" /> 
<circle cx="34039.4" cy="28254.5" r="472.441" /> 
<circle cx="34039.4" cy="39671.8" r="472.441" /> 
<circle cx="29039.4" cy="28254.5" r="472.441" /> 
<circle cx="29039.4" cy="39671.8" r="472.441" /> 
<circle cx="24039.4" cy="28254.5" r="472.441" /> 
<circle cx="24039.4" cy="39671.8" r="472.441" /> 
<circle cx="12039.4" cy="7660" r="305.315" /> 
<circle cx="9039.37" cy="7660" r="305.315" /> 
<circle cx="28039.4" cy="15160" r="305.315" /> 
<circle cx="31039.4" cy="15160" r="305.315" /> 
<circle cx="31039.4" cy="14160" r="305.315" /> 
<circle cx="28039.4" cy="14160" r="305.315" /> 
<circle cx="21539.4" cy="13160" r="305.315" /> 
<circle cx="24539.4" cy="13160" r="305.315" /> 
<circle cx="41039.4" cy="16660" r="305.315" /> 
<circle cx="38039.4" cy="16660" r="305.315" /> 
<circle cx="44539.4" cy="22160" r="305.315" /> 
<circle cx="44539.4" cy="19160" r="305.315" /> 
<circle cx="26539.4" cy="13160" r="310.315" /> 
<circle cx="25539.4" cy="13160" r="310.315" /> 
<circle cx="13539.4" cy="7660" r="310.315" /> 
<circle cx="14539.4" cy="7660" r="310.315" /> 
<circle cx="42089.4" cy="9160" r="730.315" /> 
<circle cx="32089.4" cy="9160" r="730.315" /> 
<polyline style="fill-rule:evenodd;"
points="34609,10440
34609,9879
35169,9879
35169,10440
34609,10440
" /> 
<circle cx="35989.4" cy="10160" r="280.315" /> 
<circle cx="37039.4" cy="10160" r="280.315" /> 
<circle cx="38139.4" cy="10160" r="280.315" /> 
<circle cx="39239.4" cy="10160" r="280.315" /> 
<circle cx="35439.4" cy="9160" r="280.315" /> 
<circle cx="36539.4" cy="9160" r="280.315" /> 
<circle cx="37589.4" cy="9160" r="280.315" /> 
<circle cx="38689.4" cy="9160" r="280.315" /> 
<circle cx="35039.4" cy="19160" r="480.315" /> 
<polyline style="fill-rule:evenodd;"
points="40559,19640
40559,18679
41519,18679
41519,19640
40559,19640
" /> 
<circle cx="19039.4" cy="27160" r="480.315" /> 
<polyline style="fill-rule:evenodd;"
points="18559,32679
19519,32679
19519,33640
18559,33640
18559,32679
" /> 
<circle cx="15539.4" cy="13160" r="330.315" /> 
<polyline style="fill-rule:evenodd;"
points="11869,12829
11869,13490
11209,13490
11209,12829
11869,12829
" /> 
<polyline style="fill-rule:evenodd;"
points="35369,15329
35369,15990
34709,15990
34709,15329
35369,15329
" /> 
<circle cx="33039.4" cy="15660" r="330.315" /> 
<circle cx="8070.87" cy="33160" r="472.441" /> 
<circle cx="10039.4" cy="33160" r="413.386" /> 
<circle cx="12007.9" cy="33160" r="413.386" /> 
<circle cx="6102.36" cy="33160" r="472.441" /> 
<circle cx="16795.3" cy="18160" r="413.386" /> 
<circle cx="16007.9" cy="20522.2" r="413.386" /> 
<circle cx="16007.9" cy="15797.8" r="413.386" /> 
<circle cx="11283.5" cy="15797.8" r="413.386" /> 
<circle cx="11283.5" cy="20522.2" r="413.386" /> 
</g>
<g style="fill:#00A000; fill-opacity:1.0; 
stroke:#00A000; stroke-width:393.701; stroke-opacity:1; 
stroke-linecap:round; stroke-linejoin:round;">
<path d="M5145 9644
L9555 9644
" />
<path d="M33789 6410
L36539 9160
" />
<path d="M11789 6410
L33789 6410
" />
<path d="M10539 7660
L11789 6410
" />
<path d="M10539 8660
L10539 7660
" />
<path d="M9555 9644
L10539 8660
" />
<path d="M35439 9160
L34289 9160
" />
<path d="M12539 13160
L11539 13160
" />
<path d="M14789 10910
L12539 13160
" />
<path d="M32539 10910
L14789 10910
" />
<path d="M34289 9160
L32539 10910
" />
<path d="M16007 20522
L15677 20522
" />
<path d="M7539 13160
L11539 13160
" />
<path d="M4039 16660
L7539 13160
" />
<path d="M4039 21160
L4039 16660
" />
<path d="M5539 22660
L4039 21160
" />
<path d="M13539 22660
L5539 22660
" />
<path d="M15677 20522
L13539 22660
" />
<path d="M37589 9160
L37589 8960
" />
<path d="M11039 5660
L9039 7660
" />
<path d="M34289 5660
L11039 5660
" />
<path d="M37589 8960
L34289 5660
" />
<path d="M9039 7660
L5161 7660
" />
<path d="M5161 7660
L5145 7675
" />
<path d="M38039 14160
L38039 12410
" />
<path d="M37039 11410
L37039 10160
" />
<path d="M38039 12410
L37039 11410
" />
<path d="M38039 16660
L38039 14160
" />
<path d="M35039 15660
L37039 15660
" />
<path d="M37039 15660
L38039 16660
" />
<path d="M34889 10160
L34889 10310
" />
<path d="M34889 10310
L31039 14160
" />
<path d="M31039 14160
L31039 15160
" />
<path d="M14539 7660
L14539 8660
" />
<path d="M5789 24160
L15789 24160
" />
<path d="M3289 21660
L5789 24160
" />
<path d="M3289 16160
L3289 21660
" />
<path d="M7539 11910
L3289 16160
" />
<path d="M11289 11910
L7539 11910
" />
<path d="M14539 8660
L11289 11910
" />
</g>
<g style="fill:#00A000; fill-opacity:1.0; 
stroke:#00A000; stroke-width:787.402; stroke-opacity:1; 
stroke-linecap:round; stroke-linejoin:round;">
<path d="M24039 15660
L24039 18910
" />
<path d="M24039 18910
L18789 24160
" />
<path d="M18789 24160
L18789 23910
" />
<path d="M18789 23910
L18789 24160
" />
<path d="M19039 33160
L12007 33160
" />
<path d="M33133 24160
L18789 24160
" />
<path d="M18789 24160
L15789 24160
" />
<path d="M15789 24160
L14039 25910
" />
<path d="M14039 25910
L14039 31128
" />
<path d="M14039 31128
L12007 33160
" />
</g>
<g style="fill:#00A000; fill-opacity:1.0; 
stroke:#00A000; stroke-width:393.701; stroke-opacity:1; 
stroke-linecap:round; stroke-linejoin:round;">
<path d="M35989 10160
L35989 13110
" />
<path d="M35989 13110
L37039 14160
" />
<path d="M24539 13160
L25539 13160
" />
<path d="M24539 13160
L24539 15160
" />
<path d="M24539 15160
L24039 15660
" />
<path d="M37039 14160
L34539 14160
" />
<path d="M33039 14660
L33039 15660
" />
<path d="M33539 14160
L33039 14660
" />
<path d="M34539 14160
L33539 14160
" />
<path d="M35039 19160
L34539 19160
" />
<path d="M33039 17660
L33039 15660
" />
<path d="M34539 19160
L33039 17660
" />
<path d="M35039 19160
L35039 22254
" />
<path d="M35039 22254
L33133 24160
" />
<path d="M28039 15160
L27539 15160
" />
<path d="M26539 14160
L26539 13160
" />
<path d="M27539 15160
L26539 14160
" />
</g>
<g style="fill:#00A000; fill-opacity:1.0; 
stroke:#00A000; stroke-width:787.402; stroke-opacity:1; 
stroke-linecap:round; stroke-linejoin:round;">
<path d="M6102 33160
L6102 32097
" />
<path d="M11039 27160
L12464 27160
" />
<path d="M6102 32097
L11039 27160
" />
<path d="M24039 28254
L29039 28254
" />
<path d="M29039 39671
L34039 39671
" />
<path d="M34039 28254
L39039 28254
" />
<path d="M39039 39671
L44039 39671
" />
<path d="M5645 41144
L5645 39175
" />
<path d="M5645 39175
L10039 34782
" />
<path d="M10039 34782
L10039 33160
" />
<path d="M19039 27160
L19039 28160
" />
<path d="M24039 33160
L24039 39671
" />
<path d="M19039 28160
L24039 33160
" />
<path d="M15614 27160
L19039 27160
" />
<path d="M41039 19160
L41039 16660
" />
<path d="M44539 19160
L41039 19160
" />
<path d="M44551 24160
L44551 22171
" />
<path d="M44551 22171
L44539 22160
" />
<path d="M44039 28254
L44039 24671
" />
<path d="M44039 24671
L44551 24160
" />
<path d="M5645 28144
L5645 26175
" />
<path d="M8070 33160
L8070 34128
" />
<path d="M5645 29553
L5645 28144
" />
<path d="M3539 31660
L5645 29553
" />
<path d="M3539 34160
L3539 31660
" />
<path d="M5039 35660
L3539 34160
" />
<path d="M6539 35660
L5039 35660
" />
<path d="M8070 34128
L6539 35660
" />
</g>
<g style="fill:#00A000; fill-opacity:1.0; 
stroke:#00A000; stroke-width:393.701; stroke-opacity:1; 
stroke-linecap:round; stroke-linejoin:round;">
<path d="M5145 19644
L10405 19644
" />
<path d="M10405 19644
L11283 20522
" />
<path d="M5145 17675
L16311 17675
" />
<path d="M16311 17675
L16795 18160
" />
<path d="M23039 15660
L23039 16660
" />
<path d="M18677 15797
L16007 15797
" />
<path d="M20039 17160
L18677 15797
" />
<path d="M22539 17160
L20039 17160
" />
<path d="M23039 16660
L22539 17160
" />
<path d="M16007 15797
L16007 13628
" />
<path d="M16007 13628
L15539 13160
" />
<path d="M28039 14160
L28039 13160
" />
<path d="M22539 12160
L21539 13160
" />
<path d="M27039 12160
L22539 12160
" />
<path d="M28039 13160
L27039 12160
" />
<path d="M22039 15660
L21539 15160
" />
<path d="M21539 15160
L21539 13160
" />
<path d="M12039 7660
L13539 7660
" />
</g>
<g style="fill:#FFFFFF; fill-opacity:1.0; 
stroke:#FFFFFF; stroke-width:39.3701; stroke-opacity:1; 
stroke-linecap:round; stroke-linejoin:round;">
<circle cx="22039.4" cy="15660" r="180.315" /> 
<circle cx="23039.4" cy="15660" r="180.315" /> 
<circle cx="24039.4" cy="15660" r="180.315" /> 
<circle cx="38039.4" cy="14160" r="140.315" /> 
<circle cx="37039.4" cy="14160" r="140.315" /> 
<circle cx="5645.67" cy="39175.7" r="196.85" /> 
<circle cx="5645.67" cy="41144.3" r="196.85" /> 
<circle cx="5645.67" cy="26175.7" r="196.85" /> 
<circle cx="5645.67" cy="28144.3" r="196.85" /> 
<circle cx="5145.67" cy="17675.7" r="196.85" /> 
<circle cx="5145.67" cy="19644.3" r="196.85" /> 
<circle cx="5145.67" cy="7675.75" r="196.85" /> 
<circle cx="5145.67" cy="9644.25" r="196.85" /> 
<circle cx="12464.6" cy="27160" r="196.85" /> 
<circle cx="15614.2" cy="27160" r="196.85" /> 
<circle cx="39039.4" cy="28254.5" r="196.85" /> 
<circle cx="39039.4" cy="39671.8" r="196.85" /> 
<circle cx="33133.9" cy="24160" r="196.85" /> 
<circle cx="44551.2" cy="24160" r="196.85" /> 
<circle cx="44039.4" cy="28254.5" r="196.85" /> 
<circle cx="44039.4" cy="39671.8" r="196.85" /> 
<circle cx="34039.4" cy="28254.5" r="196.85" /> 
<circle cx="34039.4" cy="39671.8" r="196.85" /> 
<circle cx="29039.4" cy="28254.5" r="196.85" /> 
<circle cx="29039.4" cy="39671.8" r="196.85" /> 
<circle cx="24039.4" cy="28254.5" r="196.85" /> 
<circle cx="24039.4" cy="39671.8" r="196.85" /> 
<circle cx="12039.4" cy="7660" r="140.315" /> 
<circle cx="9039.37" cy="7660" r="140.315" /> 
<circle cx="28039.4" cy="15160" r="140.315" /> 
<circle cx="31039.4" cy="15160" r="140.315" /> 
<circle cx="31039.4" cy="14160" r="140.315" /> 
<circle cx="28039.4" cy="14160" r="140.315" /> 
<circle cx="21539.4" cy="13160" r="140.315" /> 
<circle cx="24539.4" cy="13160" r="140.315" /> 
<circle cx="41039.4" cy="16660" r="140.315" /> 
<circle cx="38039.4" cy="16660" r="140.315" /> 
<circle cx="44539.4" cy="22160" r="140.315" /> 
<circle cx="44539.4" cy="19160" r="140.315" /> 
<circle cx="26539.4" cy="13160" r="140.315" /> 
<circle cx="25539.4" cy="13160" r="140.315" /> 
<circle cx="13539.4" cy="7660" r="140.315" /> 
<circle cx="14539.4" cy="7660" r="140.315" /> 
<circle cx="42089.4" cy="9160" r="580.315" /> 
<circle cx="32089.4" cy="9160" r="580.315" /> 
<circle cx="34889.4" cy="10160" r="180.315" /> 
<circle cx="35989.4" cy="10160" r="180.315" /> 
<circle cx="37039.4" cy="10160" r="180.315" /> 
<circle cx="38139.4" cy="10160" r="180.315" /> 
<circle cx="39239.4" cy="10160" r="180.315" /> 
<circle cx="35439.4" cy="9160" r="180.315" /> 
<circle cx="36539.4" cy="9160" r="180.315" /> 
<circle cx="37589.4" cy="9160" r="180.315" /> 
<circle cx="38689.4" cy="9160" r="180.315" /> 
<circle cx="35039.4" cy="19160" r="230.315" /> 
<circle cx="41039.4" cy="19160" r="230.315" /> 
<circle cx="19039.4" cy="27160" r="230.315" /> 
<circle cx="19039.4" cy="33160" r="230.315" /> 
<circle cx="15539.4" cy="13160" r="180.315" /> 
<circle cx="11539.4" cy="13160" r="180.315" /> 
<circle cx="35039.4" cy="15660" r="180.315" /> 
<circle cx="33039.4" cy="15660" r="180.315" /> 
<circle cx="8070.87" cy="33160" r="236.22" /> 
<circle cx="10039.4" cy="33160" r="236.22" /> 
<circle cx="12007.9" cy="33160" r="236.22" /> 
<circle cx="6102.36" cy="33160" r="236.22" /> 
<circle cx="16795.3" cy="18160" r="177.165" /> 
<circle cx="16007.9" cy="20522.2" r="177.165" /> 
<circle cx="16007.9" cy="15797.8" r="177.165" /> 
<circle cx="11283.5" cy="15797.8" r="177.165" /> 
<circle cx="11283.5" cy="20522.2" r="177.165" /> 
</g> 
</svg>
