M48
;DRILL file {Pcbnew (2013-may-18)-stable} date Fri 10 Jan 2014 12:35:35 PM EET
;FORMAT={-:-/ absolute / metric / decimal}
FMAT,2
METRIC,TZ
T1C0.800
T2C0.813
T3C1.000
T4C1.001
T5C1.143
T6C3.000
%
G90
G05
M71
T1
X10.83Y-17.069
X10.83Y-19.863
X10.83Y-22.53
X10.83Y-25.324
X13.37Y-15.672
X13.37Y-18.466
X13.37Y-21.26
X13.37Y-23.927
X13.37Y-26.721
X20.736Y-31.928
X20.99Y-16.18
X20.99Y-18.72
X20.99Y-21.26
X20.99Y-23.8
X28.61Y-16.18
X28.61Y-18.72
X28.61Y-21.26
X28.61Y-23.8
X39.532Y-18.212
X40.04Y-33.96
X54.01Y-74.6
X54.01Y-77.14
X54.01Y-79.68
X54.01Y-82.22
X54.01Y-84.76
X54.01Y-87.3
X54.01Y-89.84
X54.01Y-92.38
X58.645Y-2.527
X61.63Y-74.6
X61.63Y-77.14
X61.63Y-79.68
X61.63Y-82.22
X61.63Y-84.76
X61.63Y-87.3
X61.63Y-89.84
X61.63Y-92.38
X65.44Y-89.586
X75.6Y-47.168
X89.062Y-52.883
X90.205Y-16.18
X90.205Y-18.72
X90.205Y-21.26
X90.205Y-23.8
X90.205Y-26.34
X90.205Y-28.88
X90.205Y-31.42
X90.205Y-33.96
X91.602Y-52.883
X94.142Y-52.883
X96.682Y-52.883
X97.825Y-16.18
X97.825Y-18.72
X97.825Y-21.26
X97.825Y-23.8
X97.825Y-26.34
X97.825Y-28.88
X97.825Y-31.42
X97.825Y-33.96
X100.238Y-60.63
X104.81Y-22.022
X106.08Y-89.332
X107.35Y-23.8
X107.35Y-31.42
X109.89Y-23.8
X109.89Y-31.42
X112.43Y-23.8
X112.43Y-31.42
X112.938Y-52.248
X112.938Y-55.042
X112.938Y-57.709
X112.938Y-60.503
X112.938Y-63.297
X112.938Y-66.091
X112.938Y-68.758
X112.938Y-71.552
X112.938Y-74.346
X112.938Y-77.14
X112.938Y-79.807
X112.938Y-82.601
X112.938Y-85.395
X114.97Y-23.8
X114.97Y-31.42
X115.478Y-53.823
X115.478Y-56.363
X115.478Y-59.157
X115.478Y-61.9
X115.478Y-64.643
X115.478Y-67.437
X115.478Y-70.18
X115.478Y-72.924
X115.478Y-75.768
X115.478Y-78.461
X115.478Y-81.204
X115.478Y-83.998
X117.51Y-23.8
X117.51Y-31.42
X120.05Y-23.8
X120.05Y-31.42
X122.59Y-23.8
X122.59Y-31.42
T2
X15.275Y-57.455
X15.91Y-47.93
X17.18Y-7.29
X17.18Y-11.1
X17.18Y-18.72
X17.815Y-57.455
X19.72Y-27.61
X20.99Y-38.405
X23.53Y-11.1
X23.53Y-38.405
X23.53Y-55.55
X24.8Y-7.29
X26.07Y-11.1
X26.07Y-47.93
X26.07Y-55.55
X27.34Y-27.61
X29.88Y-27.61
X36.23Y-9.83
X37.5Y-27.61
X39.405Y-70.155
X39.405Y-73.33
X39.405Y-76.505
X39.405Y-79.68
X39.405Y-82.855
X39.405Y-86.03
X39.405Y-89.84
X39.405Y-93.015
X43.85Y-9.83
X44.739Y-18.148
X44.739Y-25.768
X46.39Y-58.725
X46.39Y-66.345
X46.581Y-11.481
X46.581Y-14.021
X47.025Y-70.155
X47.025Y-73.33
X47.025Y-76.505
X47.025Y-79.68
X47.025Y-82.855
X47.025Y-86.03
X47.025Y-89.84
X47.025Y-93.015
X49.12Y-11.481
X49.565Y-58.725
X49.565Y-66.345
X52.041Y-2.718
X52.041Y-10.338
X52.041Y-13.386
X52.041Y-21.006
X54.01Y-61.265
X54.01Y-63.805
X54.01Y-66.345
X61.63Y-61.265
X61.63Y-63.805
X61.63Y-66.345
X65.44Y-58.725
X65.44Y-66.345
X65.44Y-74.6
X65.44Y-82.22
X65.44Y-84.76
X65.44Y-92.38
X73.06Y-74.6
X73.06Y-82.22
X73.06Y-84.76
X73.06Y-92.38
X79.41Y-13.64
X79.41Y-16.18
X79.41Y-19.355
X79.41Y-21.895
X79.41Y-25.07
X79.41Y-27.61
X79.41Y-31.42
X79.41Y-33.96
X87.03Y-13.64
X87.03Y-16.18
X87.03Y-19.355
X87.03Y-21.895
X87.03Y-25.07
X87.03Y-27.61
X87.03Y-31.42
X87.03Y-33.96
X89.062Y-59.233
X91.602Y-59.233
X94.142Y-47.168
X96.682Y-47.168
X102.27Y-35.865
X106.715Y-39.675
X108.62Y-17.958
X108.62Y-20.498
X109.89Y-35.865
X112.43Y-13.005
X112.43Y-20.625
X114.335Y-39.675
X117.51Y-13.005
X117.51Y-20.625
T3
X20.99Y-42.85
X23.53Y-42.85
X26.07Y-42.85
X55.28Y-13.64
X55.28Y-16.18
X55.28Y-18.72
X55.28Y-21.26
X55.28Y-23.8
X55.28Y-26.34
X55.28Y-28.88
X55.28Y-31.42
X55.28Y-33.96
X55.28Y-36.5
X55.28Y-39.04
X55.28Y-41.58
X70.52Y-13.64
X70.52Y-16.18
X70.52Y-18.72
X70.52Y-21.26
X70.52Y-23.8
X70.52Y-26.34
X70.52Y-28.88
X70.52Y-31.42
X70.52Y-33.96
X70.52Y-36.5
X70.52Y-39.04
X70.52Y-41.58
T5
X13.37Y-51.74
X26.07Y-51.74
T6
X10.83Y-8.433
X10.83Y-33.833
X115.478Y-45.263
X115.478Y-92.253
T4
X3.411Y-46.931G85X3.411Y-48.929
G05
X5.411Y-52.629G85X7.41Y-52.629
G05
X9.41Y-46.931G85X9.41Y-48.929
G05
T0
M30
