M48
;DRILL file {Pcbnew (2013-may-18)-stable} date Mon 17 Feb 2014 07:25:31 PM EET
;FORMAT={-:-/ absolute / metric / decimal}
FMAT,2
METRIC,TZ
T1C0.800
T2C0.813
T3C1.000
T4C1.001
T5C1.016
T6C1.143
T7C3.000
T8C3.048
%
G90
G05
M71
T1
X4.445Y-38.608
X4.445Y-41.148
X4.445Y-43.688
X4.445Y-46.228
X8.001Y-55.499
X8.89Y-23.495
X12.065Y-38.608
X12.065Y-41.148
X12.065Y-43.688
X12.065Y-46.228
X14.859Y-67.183
X17.399Y-62.103
X20.066Y-43.053
X20.955Y-5.08
X20.955Y-72.39
X22.479Y-62.103
X22.479Y-67.183
X33.02Y-40.64
X37.465Y-14.605
X41.275Y-35.56
X43.18Y-60.325
X47.625Y-45.339
X69.469Y-37.465
X72.39Y-20.955
X76.2Y-46.99
X76.835Y-69.85
X76.835Y-72.39
X76.835Y-74.93
X76.835Y-77.47
X76.835Y-80.01
X76.835Y-82.55
X76.835Y-85.09
X76.835Y-87.63
X84.455Y-43.18
X84.455Y-69.85
X84.455Y-72.39
X84.455Y-74.93
X84.455Y-77.47
X84.455Y-80.01
X84.455Y-82.55
X84.455Y-85.09
X84.455Y-87.63
X86.36Y-15.875
X86.36Y-18.415
X86.36Y-20.955
X86.36Y-23.495
X86.36Y-26.035
X86.36Y-28.575
X86.36Y-31.115
X86.36Y-33.655
X86.36Y-46.355
X86.995Y-43.18
X89.535Y-43.18
X91.821Y-84.709
X92.075Y-43.18
X93.98Y-15.875
X93.98Y-18.415
X93.98Y-20.955
X93.98Y-23.495
X93.98Y-26.035
X93.98Y-28.575
X93.98Y-31.115
X93.98Y-33.655
X95.885Y-43.18
X100.33Y-22.86
X103.505Y-23.495
X103.505Y-31.115
X106.045Y-23.495
X106.045Y-31.115
X108.585Y-23.495
X108.585Y-31.115
X110.363Y-88.265
X111.125Y-23.495
X111.125Y-31.115
X113.665Y-23.495
X113.665Y-31.115
X114.3Y-52.07
X114.3Y-54.864
X114.3Y-57.531
X114.3Y-60.325
X114.3Y-63.119
X114.3Y-65.913
X114.3Y-68.58
X114.3Y-71.374
X114.3Y-74.168
X114.3Y-76.962
X114.3Y-79.629
X114.3Y-82.423
X114.3Y-85.217
X116.205Y-23.495
X116.205Y-31.115
X116.84Y-53.645
X116.84Y-56.185
X116.84Y-58.979
X116.84Y-61.722
X116.84Y-64.465
X116.84Y-67.259
X116.84Y-70.002
X116.84Y-72.746
X116.84Y-75.59
X116.84Y-78.283
X116.84Y-81.026
X116.84Y-83.82
X118.745Y-23.495
X118.745Y-31.115
T2
X2.159Y-49.657
X4.699Y-49.657
X8.763Y-59.055
X8.763Y-61.595
X12.065Y-49.403
X12.065Y-54.483
X16.637Y-8.001
X17.145Y-18.415
X17.145Y-94.615
X17.78Y-85.09
X18.415Y-57.785
X19.685Y-49.403
X19.685Y-54.483
X19.685Y-94.615
X20.955Y-57.785
X22.86Y-46.863
X22.86Y-49.403
X22.86Y-51.943
X22.86Y-54.483
X22.86Y-75.565
X24.257Y-8.001
X24.765Y-18.415
X25.4Y-75.565
X25.4Y-92.71
X27.305Y-5.461
X27.305Y-8.001
X27.305Y-10.541
X27.94Y-85.09
X27.94Y-92.71
X28.575Y-18.669
X28.575Y-21.209
X28.575Y-23.749
X29.21Y-66.548
X29.21Y-69.088
X30.48Y-46.863
X30.48Y-49.403
X30.48Y-51.943
X30.48Y-54.483
X34.29Y-66.548
X34.29Y-69.088
X34.925Y-5.461
X34.925Y-8.001
X34.925Y-10.541
X35.433Y-2.159
X36.195Y-18.669
X36.195Y-21.209
X36.195Y-23.749
X37.465Y-41.529
X37.465Y-44.069
X37.465Y-46.609
X37.465Y-49.149
X37.719Y-37.973
X40.005Y-13.589
X40.005Y-21.209
X40.005Y-23.749
X40.005Y-31.369
X40.259Y-52.959
X40.513Y-8.509
X42.799Y-52.959
X43.053Y-2.159
X43.053Y-5.969
X43.053Y-8.509
X43.053Y-13.335
X43.053Y-20.955
X45.085Y-41.529
X45.085Y-44.069
X45.085Y-46.609
X45.085Y-49.149
X45.339Y-37.973
X45.593Y-15.875
X45.593Y-23.495
X45.593Y-26.035
X45.593Y-33.655
X48.26Y-13.335
X48.26Y-20.955
X48.26Y-23.495
X48.26Y-31.115
X62.23Y-65.405
X62.23Y-68.58
X62.23Y-71.755
X62.23Y-74.93
X62.23Y-78.105
X62.23Y-81.28
X62.23Y-85.09
X62.23Y-88.265
X69.215Y-53.975
X69.215Y-61.595
X69.85Y-65.405
X69.85Y-68.58
X69.85Y-71.755
X69.85Y-74.93
X69.85Y-78.105
X69.85Y-81.28
X69.85Y-85.09
X69.85Y-88.265
X70.485Y-13.335
X70.485Y-20.955
X72.39Y-53.975
X72.39Y-61.595
X75.565Y-15.875
X75.629Y-23.495
X75.755Y-26.098
X75.755Y-33.718
X76.835Y-56.515
X76.835Y-59.055
X76.835Y-61.595
X79.375Y-38.735
X81.915Y-38.735
X83.185Y-15.875
X83.248Y-23.495
X83.376Y-26.098
X83.376Y-33.718
X84.455Y-56.515
X84.455Y-59.055
X84.455Y-61.595
X88.265Y-53.975
X88.265Y-61.595
X88.265Y-69.85
X88.265Y-77.47
X88.265Y-80.01
X88.265Y-87.63
X89.535Y-48.26
X92.075Y-48.26
X95.885Y-69.85
X95.885Y-77.47
X95.885Y-80.01
X95.885Y-87.63
X98.425Y-35.56
X102.87Y-39.37
X104.775Y-17.653
X104.775Y-20.193
X106.045Y-35.56
X108.585Y-12.7
X108.585Y-20.32
X110.49Y-39.37
X113.665Y-12.7
X113.665Y-20.32
T3
X22.86Y-80.01
X25.4Y-80.01
X27.94Y-80.01
X51.435Y-13.335
X51.435Y-15.875
X51.435Y-18.415
X51.435Y-20.955
X51.435Y-23.495
X51.435Y-26.035
X51.435Y-28.575
X51.435Y-31.115
X51.435Y-33.655
X51.435Y-36.195
X51.435Y-38.735
X51.435Y-41.275
X66.675Y-13.335
X66.675Y-15.875
X66.675Y-18.415
X66.675Y-20.955
X66.675Y-23.495
X66.675Y-26.035
X66.675Y-28.575
X66.675Y-31.115
X66.675Y-33.655
X66.675Y-36.195
X66.675Y-38.735
X66.675Y-41.275
T5
X3.937Y-13.462
X3.937Y-16.256
X3.937Y-18.923
X3.937Y-21.717
X6.477Y-12.065
X6.477Y-14.859
X6.477Y-17.653
X6.477Y-20.32
X6.477Y-23.114
T6
X15.24Y-88.9
X27.94Y-88.9
T7
X8.255Y-74.295
X50.165Y-4.445
X106.045Y-5.715
X106.045Y-94.615
X116.84Y-45.085
X116.84Y-92.075
T8
X3.937Y-4.826
X3.937Y-30.226
T4
X5.281Y-84.091G85X5.281Y-86.089
G05
X7.281Y-89.789G85X9.28Y-89.789
G05
X11.28Y-84.091G85X11.28Y-86.089
G05
T0
M30
